<svg width="65" height="58" viewBox="0 0 65 58" fill="none" xmlns="http://www.w3.org/2000/svg">
<path d="M40.8359 40.8891C49.2547 40.8891 56.0795 34.0643 56.0795 25.6455C56.0795 17.2267 49.2547 10.4019 40.8359 10.4019C32.4171 10.4019 25.5923 17.2267 25.5923 25.6455C25.5923 34.0643 32.4171 40.8891 40.8359 40.8891Z" stroke="white" stroke-miterlimit="10"/>
<path d="M21.3391 42.9358C30.304 41.8485 37.2436 34.2054 37.2436 24.9526C37.2436 14.943 29.1314 6.83081 19.1218 6.83081C9.11217 6.83081 1 14.943 1 24.9526C1 34.28 8.04618 41.9658 17.1177 42.9678V48.1379H12.8858V52.7216H17.1071V56.8363H21.2964V52.7536H25.1446V48.1272H21.2964L21.3391 42.9358Z" stroke="white" stroke-miterlimit="10"/>
<path d="M57.6469 4.6137L51.4748 10.967C44.1728 5.66903 33.886 6.52182 27.5754 13.2908C20.753 20.6142 21.1581 32.0842 28.4815 38.9065C35.8048 45.7289 47.2748 45.3238 54.0972 38.0005C60.4611 31.1781 60.5357 20.7421 54.5875 13.8345L60.7169 7.44923L64.0002 10.402V1L54.3423 1.60761L57.6469 4.6137Z" stroke="white" stroke-miterlimit="10"/>
<path d="M19.3451 39.8228C27.2988 39.8228 33.7466 33.375 33.7466 25.4213C33.7466 17.4675 27.2988 11.0198 19.3451 11.0198C11.3914 11.0198 4.9436 17.4675 4.9436 25.4213C4.9436 33.375 11.3914 39.8228 19.3451 39.8228Z" stroke="white" stroke-miterlimit="10"/>
</svg>
