<svg width="65" height="58" fill="none" xmlns="http://www.w3.org/2000/svg"><path d="M40.836 40.89c8.419 0 15.244-6.826 15.244-15.245 0-8.418-6.825-15.243-15.244-15.243s-15.244 6.825-15.244 15.243c0 8.42 6.825 15.244 15.244 15.244z" stroke="#fff" stroke-miterlimit="10"/><path d="M21.34 42.936c8.964-1.087 15.904-8.73 15.904-17.983 0-10.01-8.113-18.122-18.122-18.122C9.112 6.83 1 14.943 1 24.953c0 9.327 7.046 17.013 16.118 18.015v5.17h-4.232v4.584h4.221v4.114h4.19v-4.082h3.848v-4.627h-3.849l.043-5.191z" stroke="#fff" stroke-miterlimit="10"/><path d="M57.647 4.614l-6.172 6.353c-7.302-5.298-17.589-4.445-23.9 2.324-6.822 7.323-6.417 18.793.907 25.616 7.323 6.822 18.793 6.417 25.615-.906 6.364-6.823 6.439-17.259.49-24.166l6.13-6.386L64 10.402V1l-9.658.608 3.305 3.006z" stroke="#fff" stroke-miterlimit="10"/><path d="M19.345 39.823c7.954 0 14.402-6.448 14.402-14.402 0-7.953-6.448-14.401-14.402-14.401-7.954 0-14.401 6.448-14.401 14.401 0 7.954 6.447 14.402 14.401 14.402z" stroke="#fff" stroke-miterlimit="10"/></svg>