<svg width="18" height="17" fill="none" xmlns="http://www.w3.org/2000/svg"><path d="M12.765 13.481H8.322a4.736 4.736 0 01-4.73-4.73V2.564h11.196a2.71 2.71 0 012.707 2.708v3.48c.008 2.603-2.118 4.73-4.73 4.73zM4.707 3.68v5.07a3.623 3.623 0 003.615 3.616h4.443a3.623 3.623 0 003.616-3.616V5.27c0-.875-.717-1.592-1.593-1.592H4.707zm8.6 11.32a.554.554 0 00-.558.557c0 .311.247.558.558.558.31 0 .557-.247.557-.558a.559.559 0 00-.557-.557zm-5.518 0a.554.554 0 00-.558.557c0 .311.247.558.558.558.31 0 .557-.247.557-.558A.57.57 0 007.789 15z" fill="#FFF5DF"/><path d="M4.15 5.47a.554.554 0 01-.558-.557V2.707c0-.876-.717-1.592-1.593-1.592h-.836A.554.554 0 01.606.557C.606.247.853 0 1.163 0H2a2.71 2.71 0 012.708 2.707v2.206a.559.559 0 01-.558.558z" fill="#FFF5DF"/></svg>