<svg width="37" height="33" viewBox="0 0 37 33" fill="none" xmlns="http://www.w3.org/2000/svg">
<g opacity="0.5">
<path d="M22.7654 23.4814H18.3221C15.7102 23.4814 13.592 21.3553 13.592 18.7513V12.5641H24.788C26.2851 12.5641 27.4955 13.7824 27.4955 15.2715V18.7513C27.5034 21.3553 25.3773 23.4814 22.7654 23.4814ZM14.7069 13.6789V18.7513C14.7069 20.7421 16.3313 22.3666 18.3221 22.3666H22.7654C24.7562 22.3666 26.3806 20.7421 26.3806 18.7513V15.2715C26.3806 14.3956 25.664 13.6789 24.788 13.6789H14.7069Z" fill="#526359"/>
<path d="M23.3069 25C22.9964 25 22.7495 25.2469 22.7495 25.5574C22.7495 25.868 22.9964 26.1148 23.3069 26.1148C23.6175 26.1148 23.8643 25.868 23.8643 25.5574C23.8643 25.2548 23.6175 25 23.3069 25Z" fill="#526359"/>
<path d="M17.7886 25C17.4781 25 17.2312 25.2469 17.2312 25.5574C17.2312 25.868 17.4781 26.1148 17.7886 26.1148C18.0992 26.1148 18.346 25.868 18.346 25.5574C18.3381 25.2548 18.0912 25 17.7886 25Z" fill="#526359"/>
<path d="M14.1495 15.4706C13.8389 15.4706 13.5921 15.2237 13.5921 14.9132V12.7074C13.5921 11.8315 12.8754 11.1148 11.9995 11.1148H11.1634C10.8528 11.1148 10.606 10.868 10.606 10.5574C10.606 10.2469 10.8528 10 11.1634 10H11.9995C13.4965 10 14.7069 11.2183 14.7069 12.7074V14.9132C14.7069 15.2158 14.4601 15.4706 14.1495 15.4706Z" fill="#526359"/>
<path d="M10 5.09813C12.7614 2.5539 16.4492 1 20.5 1C29.0604 1 36 7.93959 36 16.5C36 25.0604 29.0604 32 20.5 32C16.4492 32 12.7614 30.4461 10 27.9019" stroke="#526359" stroke-linecap="round"/>
<path d="M1 16C0.723858 16 0.5 16.2239 0.5 16.5C0.5 16.7761 0.723858 17 1 17V16ZM8 17C8.27614 17 8.5 16.7761 8.5 16.5C8.5 16.2239 8.27614 16 8 16V17ZM1 17C1.00534 17 1.01068 17 1.01604 17C1.02139 17 1.02674 17 1.03211 17C1.03747 17 1.04284 17 1.04821 17C1.05358 17 1.05896 17 1.06435 17C1.06973 17 1.07512 17 1.08052 17C1.08592 17 1.09132 17 1.09673 17C1.10214 17 1.10755 17 1.11297 17C1.11839 17 1.12381 17 1.12924 17C1.13467 17 1.14011 17 1.14555 17C1.15099 17 1.15643 17 1.16189 17C1.16734 17 1.1728 17 1.17826 17C1.18372 17 1.18919 17 1.19466 17C1.20014 17 1.20561 17 1.2111 17C1.21658 17 1.22207 17 1.22757 17C1.23306 17 1.23856 17 1.24406 17C1.24957 17 1.25508 17 1.26059 17C1.26611 17 1.27163 17 1.27716 17C1.28268 17 1.28821 17 1.29375 17C1.29928 17 1.30482 17 1.31037 17C1.31592 17 1.32147 17 1.32702 17C1.33258 17 1.33814 17 1.3437 17C1.34927 17 1.35484 17 1.36042 17C1.36599 17 1.37157 17 1.37716 17C1.38274 17 1.38833 17 1.39393 17C1.39952 17 1.40512 17 1.41073 17C1.41633 17 1.42194 17 1.42756 17C1.43317 17 1.43879 17 1.44441 17C1.45003 17 1.45566 17 1.4613 17C1.46693 17 1.47257 17 1.47821 17C1.48385 17 1.4895 17 1.49515 17C1.5008 17 1.50645 17 1.51211 17C1.51777 17 1.52344 17 1.52911 17C1.53478 17 1.54045 17 1.54613 17C1.55181 17 1.55749 17 1.56318 17C1.56886 17 1.57455 17 1.58025 17C1.58595 17 1.59165 17 1.59735 17C1.60305 17 1.60876 17 1.61447 17C1.62019 17 1.6259 17 1.63163 17C1.63735 17 1.64307 17 1.6488 17C1.65453 17 1.66026 17 1.666 17C1.67174 17 1.67748 17 1.68323 17C1.68897 17 1.69472 17 1.70048 17C1.70623 17 1.71199 17 1.71775 17C1.72351 17 1.72928 17 1.73505 17C1.74082 17 1.7466 17 1.75237 17C1.75815 17 1.76393 17 1.76972 17C1.7755 17 1.78129 17 1.78709 17C1.79288 17 1.79868 17 1.80448 17C1.81028 17 1.81608 17 1.82189 17C1.8277 17 1.83351 17 1.83933 17C1.84514 17 1.85096 17 1.85679 17C1.86261 17 1.86844 17 1.87427 17C1.8801 17 1.88593 17 1.89177 17C1.89761 17 1.90345 17 1.90929 17C1.91514 17 1.92099 17 1.92684 17C1.93269 17 1.93854 17 1.9444 17C1.95026 17 1.95612 17 1.96199 17C1.96785 17 1.97372 17 1.97959 17C1.98547 17 1.99134 17 1.99722 17C2.0031 17 2.00898 17 2.01487 17C2.02075 17 2.02664 17 2.03253 17C2.03842 17 2.04432 17 2.05022 17C2.05612 17 2.06202 17 2.06792 17C2.07383 17 2.07973 17 2.08564 17C2.09155 17 2.09747 17 2.10338 17C2.1093 17 2.11522 17 2.12114 17C2.12707 17 2.13299 17 2.13892 17C2.14485 17 2.15078 17 2.15672 17C2.16265 17 2.16859 17 2.17453 17C2.18047 17 2.18641 17 2.19236 17C2.1983 17 2.20425 17 2.2102 17C2.21616 17 2.22211 17 2.22807 17C2.23402 17 2.23998 17 2.24595 17C2.25191 17 2.25787 17 2.26384 17C2.26981 17 2.27578 17 2.28175 17C2.28773 17 2.2937 17 2.29968 17C2.30566 17 2.31164 17 2.31762 17C2.32361 17 2.32959 17 2.33558 17C2.34157 17 2.34756 17 2.35355 17C2.35955 17 2.36554 17 2.37154 17C2.37754 17 2.38354 17 2.38954 17C2.39555 17 2.40155 17 2.40756 17C2.41357 17 2.41958 17 2.42559 17C2.4316 17 2.43761 17 2.44363 17C2.44965 17 2.45567 17 2.46169 17C2.46771 17 2.47373 17 2.47976 17C2.48578 17 2.49181 17 2.49784 17C2.50387 17 2.5099 17 2.51593 17C2.52197 17 2.528 17 2.53404 17C2.54008 17 2.54612 17 2.55216 17C2.5582 17 2.56425 17 2.57029 17C2.57634 17 2.58238 17 2.58843 17C2.59448 17 2.60053 17 2.60659 17C2.61264 17 2.61869 17 2.62475 17C2.63081 17 2.63687 17 2.64293 17C2.64899 17 2.65505 17 2.66111 17C2.66717 17 2.67324 17 2.67931 17C2.68537 17 2.69144 17 2.69751 17C2.70358 17 2.70965 17 2.71573 17C2.7218 17 2.72788 17 2.73395 17C2.74003 17 2.74611 17 2.75219 17C2.75827 17 2.76435 17 2.77043 17C2.77651 17 2.7826 17 2.78868 17C2.79477 17 2.80085 17 2.80694 17C2.81303 17 2.81912 17 2.82521 17C2.8313 17 2.83739 17 2.84348 17C2.84958 17 2.85567 17 2.86177 17C2.86786 17 2.87396 17 2.88006 17C2.88616 17 2.89226 17 2.89836 17C2.90446 17 2.91056 17 2.91666 17C2.92276 17 2.92887 17 2.93497 17C2.94108 17 2.94718 17 2.95329 17C2.9594 17 2.96551 17 2.97161 17C2.97772 17 2.98383 17 2.98994 17C2.99605 17 3.00217 17 3.00828 17C3.01439 17 3.0205 17 3.02662 17C3.03273 17 3.03885 17 3.04496 17C3.05108 17 3.0572 17 3.06331 17C3.06943 17 3.07555 17 3.08167 17C3.08779 17 3.09391 17 3.10003 17C3.10615 17 3.11227 17 3.11839 17C3.12451 17 3.13063 17 3.13676 17C3.14288 17 3.149 17 3.15513 17C3.16125 17 3.16737 17 3.1735 17C3.17962 17 3.18575 17 3.19187 17C3.198 17 3.20413 17 3.21025 17C3.21638 17 3.22251 17 3.22863 17C3.23476 17 3.24089 17 3.24702 17C3.25314 17 3.25927 17 3.2654 17C3.27153 17 3.27766 17 3.28379 17C3.28992 17 3.29605 17 3.30218 17C3.30831 17 3.31444 17 3.32057 17C3.3267 17 3.33283 17 3.33896 17C3.34509 17 3.35122 17 3.35735 17C3.36348 17 3.36961 17 3.37574 17C3.38187 17 3.388 17 3.39413 17C3.40026 17 3.40639 17 3.41252 17C3.41865 17 3.42478 17 3.43091 17C3.43704 17 3.44317 17 3.4493 17C3.45543 17 3.46156 17 3.46769 17C3.47382 17 3.47995 17 3.48608 17C3.49221 17 3.49833 17 3.50446 17C3.51059 17 3.51672 17 3.52285 17C3.52898 17 3.5351 17 3.54123 17C3.54736 17 3.55348 17 3.55961 17C3.56574 17 3.57186 17 3.57799 17C3.58411 17 3.59024 17 3.59636 17C3.60249 17 3.60861 17 3.61473 17C3.62086 17 3.62698 17 3.6331 17C3.63923 17 3.64535 17 3.65147 17C3.65759 17 3.66371 17 3.66983 17C3.67595 17 3.68207 17 3.68819 17C3.6943 17 3.70042 17 3.70654 17C3.71266 17 3.71877 17 3.72489 17C3.731 17 3.73712 17 3.74323 17C3.74934 17 3.75546 17 3.76157 17C3.76768 17 3.77379 17 3.7799 17C3.78601 17 3.79212 17 3.79823 17C3.80434 17 3.81044 17 3.81655 17C3.82266 17 3.82876 17 3.83487 17C3.84097 17 3.84707 17 3.85317 17C3.85928 17 3.86538 17 3.87148 17C3.87758 17 3.88368 17 3.88977 17C3.89587 17 3.90197 17 3.90806 17C3.91416 17 3.92025 17 3.92634 17C3.93243 17 3.93852 17 3.94461 17C3.9507 17 3.95679 17 3.96288 17C3.96897 17 3.97505 17 3.98114 17C3.98722 17 3.9933 17 3.99938 17C4.00547 17 4.01155 17 4.01762 17C4.0237 17 4.02978 17 4.03586 17C4.04193 17 4.048 17 4.05408 17C4.06015 17 4.06622 17 4.07229 17C4.07836 17 4.08442 17 4.09049 17C4.09656 17 4.10262 17 4.10868 17C4.11475 17 4.12081 17 4.12686 17C4.13292 17 4.13898 17 4.14504 17C4.15109 17 4.15714 17 4.1632 17C4.16925 17 4.1753 17 4.18135 17C4.18739 17 4.19344 17 4.19948 17C4.20553 17 4.21157 17 4.21761 17C4.22365 17 4.22969 17 4.23573 17C4.24176 17 4.2478 17 4.25383 17C4.25986 17 4.26589 17 4.27192 17C4.27795 17 4.28397 17 4.29 17C4.29602 17 4.30204 17 4.30806 17C4.31408 17 4.3201 17 4.32611 17C4.33213 17 4.33814 17 4.34415 17C4.35016 17 4.35617 17 4.36217 17C4.36818 17 4.37418 17 4.38019 17C4.38619 17 4.39219 17 4.39818 17C4.40418 17 4.41017 17 4.41616 17C4.42216 17 4.42814 17 4.43413 17C4.44012 17 4.4461 17 4.45208 17C4.45806 17 4.46404 17 4.47002 17C4.476 17 4.48197 17 4.48794 17C4.49391 17 4.49988 17 4.50585 17C4.51181 17 4.51778 17 4.52374 17C4.5297 17 4.53566 17 4.54161 17C4.54757 17 4.55352 17 4.55947 17C4.56542 17 4.57137 17 4.57731 17C4.58325 17 4.58919 17 4.59513 17C4.60107 17 4.60701 17 4.61294 17C4.61887 17 4.6248 17 4.63073 17C4.63665 17 4.64258 17 4.6485 17C4.65442 17 4.66034 17 4.66625 17C4.67217 17 4.67808 17 4.68399 17C4.68989 17 4.6958 17 4.7017 17C4.7076 17 4.7135 17 4.7194 17C4.72529 17 4.73119 17 4.73708 17C4.74297 17 4.74885 17 4.75473 17C4.76062 17 4.7665 17 4.77237 17C4.77825 17 4.78412 17 4.78999 17C4.79586 17 4.80173 17 4.80759 17C4.81345 17 4.81931 17 4.82517 17C4.83103 17 4.83688 17 4.84273 17C4.84858 17 4.85442 17 4.86026 17C4.86611 17 4.87194 17 4.87778 17C4.88362 17 4.88945 17 4.89527 17C4.9011 17 4.90693 17 4.91275 17C4.91857 17 4.92438 17 4.9302 17C4.93601 17 4.94182 17 4.94763 17C4.95343 17 4.95923 17 4.96503 17C4.97083 17 4.97662 17 4.98242 17C4.98821 17 4.99399 17 4.99978 17C5.00556 17 5.01134 17 5.01711 17C5.02289 17 5.02866 17 5.03443 17C5.04019 17 5.04596 17 5.05172 17C5.05748 17 5.06323 17 5.06898 17C5.07473 17 5.08048 17 5.08622 17C5.09197 17 5.0977 17 5.10344 17C5.10917 17 5.11491 17 5.12063 17C5.12636 17 5.13208 17 5.1378 17C5.14352 17 5.14923 17 5.15494 17C5.16065 17 5.16636 17 5.17206 17C5.17776 17 5.18345 17 5.18915 17C5.19484 17 5.20053 17 5.20621 17C5.21189 17 5.21757 17 5.22325 17C5.22892 17 5.23459 17 5.24026 17C5.24593 17 5.25159 17 5.25724 17C5.2629 17 5.26855 17 5.2742 17C5.27985 17 5.28549 17 5.29113 17C5.29677 17 5.3024 17 5.30803 17C5.31366 17 5.31929 17 5.32491 17C5.33053 17 5.33614 17 5.34175 17C5.34736 17 5.35297 17 5.35857 17C5.36417 17 5.36977 17 5.37536 17C5.38095 17 5.38654 17 5.39212 17C5.3977 17 5.40328 17 5.40885 17C5.41442 17 5.41999 17 5.42555 17C5.43111 17 5.43667 17 5.44222 17C5.44778 17 5.45332 17 5.45887 17C5.46441 17 5.46994 17 5.47548 17C5.48101 17 5.48654 17 5.49206 17C5.49758 17 5.5031 17 5.50861 17C5.51412 17 5.51963 17 5.52513 17C5.53063 17 5.53612 17 5.54161 17C5.5471 17 5.55259 17 5.55807 17C5.56355 17 5.56903 17 5.57449 17C5.57996 17 5.58543 17 5.59089 17C5.59635 17 5.6018 17 5.60725 17C5.61269 17 5.61814 17 5.62357 17C5.62901 17 5.63444 17 5.63987 17C5.64529 17 5.65072 17 5.65613 17C5.66155 17 5.66695 17 5.67236 17C5.67776 17 5.68316 17 5.68855 17C5.69395 17 5.69933 17 5.70471 17C5.71009 17 5.71547 17 5.72084 17C5.72621 17 5.73157 17 5.73693 17C5.74229 17 5.74764 17 5.75299 17C5.75834 17 5.76368 17 5.76901 17C5.77435 17 5.77968 17 5.785 17C5.79032 17 5.79564 17 5.80095 17C5.80626 17 5.81157 17 5.81687 17C5.82217 17 5.82746 17 5.83275 17C5.83804 17 5.84332 17 5.84859 17C5.85387 17 5.85914 17 5.8644 17C5.86966 17 5.87492 17 5.88017 17C5.88542 17 5.89067 17 5.8959 17C5.90114 17 5.90637 17 5.9116 17C5.91683 17 5.92205 17 5.92726 17C5.93247 17 5.93768 17 5.94288 17C5.94808 17 5.95328 17 5.95846 17C5.96365 17 5.96883 17 5.97401 17C5.97919 17 5.98435 17 5.98952 17C5.99468 17 5.99983 17 6.00498 17C6.01013 17 6.01528 17 6.02041 17C6.02555 17 6.03068 17 6.0358 17C6.04093 17 6.04604 17 6.05115 17C6.05626 17 6.06137 17 6.06646 17C6.07156 17 6.07665 17 6.08173 17C6.08681 17 6.09189 17 6.09696 17C6.10203 17 6.10709 17 6.11215 17C6.11721 17 6.12226 17 6.1273 17C6.13234 17 6.13738 17 6.1424 17C6.14743 17 6.15246 17 6.15747 17C6.16249 17 6.16749 17 6.17249 17C6.1775 17 6.18249 17 6.18748 17C6.19246 17 6.19744 17 6.20242 17C6.20739 17 6.21235 17 6.21731 17C6.22227 17 6.22722 17 6.23217 17C6.23711 17 6.24205 17 6.24698 17C6.25191 17 6.25683 17 6.26175 17C6.26666 17 6.27157 17 6.27647 17C6.28137 17 6.28627 17 6.29115 17C6.29604 17 6.30092 17 6.30579 17C6.31066 17 6.31553 17 6.32038 17C6.32524 17 6.33009 17 6.33493 17C6.33977 17 6.34461 17 6.34944 17C6.35426 17 6.35908 17 6.36389 17C6.36871 17 6.37351 17 6.37831 17C6.3831 17 6.38789 17 6.39268 17C6.39746 17 6.40223 17 6.407 17C6.41176 17 6.41652 17 6.42127 17C6.42602 17 6.43077 17 6.4355 17C6.44024 17 6.44497 17 6.44969 17C6.45441 17 6.45912 17 6.46382 17C6.46853 17 6.47322 17 6.47791 17C6.4826 17 6.48728 17 6.49195 17C6.49663 17 6.50129 17 6.50595 17C6.5106 17 6.51525 17 6.51989 17C6.52454 17 6.52917 17 6.53379 17C6.53842 17 6.54303 17 6.54764 17C6.55225 17 6.55685 17 6.56144 17C6.56604 17 6.57062 17 6.5752 17C6.57977 17 6.58434 17 6.5889 17C6.59346 17 6.59801 17 6.60255 17C6.6071 17 6.61163 17 6.61616 17C6.62068 17 6.6252 17 6.62971 17C6.63422 17 6.63872 17 6.64321 17C6.64771 17 6.65219 17 6.65667 17C6.66114 17 6.66561 17 6.67007 17C6.67453 17 6.67898 17 6.68342 17C6.68786 17 6.6923 17 6.69672 17C6.70115 17 6.70556 17 6.70997 17C6.71438 17 6.71878 17 6.72317 17C6.72756 17 6.73194 17 6.73631 17C6.74069 17 6.74505 17 6.74941 17C6.75376 17 6.75811 17 6.76245 17C6.76678 17 6.77111 17 6.77543 17C6.77975 17 6.78407 17 6.78837 17C6.79267 17 6.79696 17 6.80125 17C6.80553 17 6.80981 17 6.81408 17C6.81834 17 6.8226 17 6.82685 17C6.8311 17 6.83534 17 6.83957 17C6.8438 17 6.84802 17 6.85223 17C6.85645 17 6.86065 17 6.86485 17C6.86904 17 6.87322 17 6.8774 17C6.88158 17 6.88574 17 6.8899 17C6.89406 17 6.89821 17 6.90235 17C6.90649 17 6.91062 17 6.91474 17C6.91886 17 6.92297 17 6.92707 17C6.93117 17 6.93526 17 6.93935 17C6.94343 17 6.9475 17 6.95157 17C6.95563 17 6.95969 17 6.96373 17C6.96778 17 6.97181 17 6.97584 17C6.97987 17 6.98388 17 6.98789 17C6.9919 17 6.99589 17 6.99988 17C7.00387 17 7.00785 17 7.01182 17C7.01579 17 7.01975 17 7.02369 17C7.02764 17 7.03158 17 7.03551 17C7.03944 17 7.04336 17 7.04727 17C7.05118 17 7.05508 17 7.05898 17C7.06287 17 7.06675 17 7.07062 17C7.07449 17 7.07835 17 7.0822 17C7.08605 17 7.08989 17 7.09372 17C7.09756 17 7.10138 17 7.10519 17C7.109 17 7.1128 17 7.11659 17C7.12038 17 7.12416 17 7.12794 17C7.13171 17 7.13547 17 7.13922 17C7.14297 17 7.14671 17 7.15044 17C7.15417 17 7.15789 17 7.1616 17C7.16531 17 7.16901 17 7.1727 17C7.17639 17 7.18007 17 7.18374 17C7.18741 17 7.19107 17 7.19471 17C7.19836 17 7.202 17 7.20563 17C7.20926 17 7.21287 17 7.21648 17C7.22009 17 7.22368 17 7.22727 17C7.23085 17 7.23443 17 7.238 17C7.24156 17 7.24511 17 7.24866 17C7.2522 17 7.25573 17 7.25926 17C7.26278 17 7.26629 17 7.26979 17C7.27329 17 7.27678 17 7.28026 17C7.28374 17 7.28721 17 7.29067 17C7.29413 17 7.29758 17 7.30102 17C7.30445 17 7.30788 17 7.31129 17C7.31471 17 7.31811 17 7.32151 17C7.3249 17 7.32828 17 7.33166 17C7.33503 17 7.33839 17 7.34174 17C7.34509 17 7.34843 17 7.35175 17C7.35508 17 7.3584 17 7.36171 17C7.36501 17 7.36831 17 7.37159 17C7.37487 17 7.37815 17 7.38141 17C7.38467 17 7.38792 17 7.39116 17C7.3944 17 7.39763 17 7.40084 17C7.40406 17 7.40727 17 7.41046 17C7.41365 17 7.41684 17 7.42001 17C7.42318 17 7.42634 17 7.42949 17C7.43264 17 7.43578 17 7.4389 17C7.44203 17 7.44515 17 7.44825 17C7.45135 17 7.45445 17 7.45753 17C7.46061 17 7.46368 17 7.46673 17C7.46979 17 7.47284 17 7.47587 17C7.47891 17 7.48193 17 7.48494 17C7.48795 17 7.49095 17 7.49394 17C7.49693 17 7.4999 17 7.50287 17C7.50583 17 7.50879 17 7.51173 17C7.51467 17 7.5176 17 7.52052 17C7.52344 17 7.52634 17 7.52924 17C7.53213 17 7.53501 17 7.53788 17C7.54075 17 7.54361 17 7.54646 17C7.54931 17 7.55214 17 7.55496 17C7.55779 17 7.5606 17 7.5634 17C7.5662 17 7.56898 17 7.57176 17C7.57453 17 7.57729 17 7.58005 17C7.5828 17 7.58553 17 7.58826 17C7.59099 17 7.5937 17 7.5964 17C7.59911 17 7.6018 17 7.60448 17C7.60715 17 7.60982 17 7.61247 17C7.61513 17 7.61777 17 7.6204 17C7.62302 17 7.62564 17 7.62824 17C7.63085 17 7.63344 17 7.63602 17C7.6386 17 7.64117 17 7.64372 17C7.64628 17 7.64882 17 7.65135 17C7.65388 17 7.6564 17 7.6589 17C7.66141 17 7.6639 17 7.66638 17C7.66886 17 7.67132 17 7.67378 17C7.67623 17 7.67867 17 7.6811 17C7.68353 17 7.68595 17 7.68835 17C7.69076 17 7.69315 17 7.69553 17C7.69791 17 7.70027 17 7.70263 17C7.70498 17 7.70732 17 7.70965 17C7.71197 17 7.71429 17 7.71659 17C7.71889 17 7.72118 17 7.72346 17C7.72573 17 7.728 17 7.73025 17C7.7325 17 7.73473 17 7.73696 17C7.73918 17 7.74139 17 7.74359 17C7.74579 17 7.74797 17 7.75015 17C7.75232 17 7.75448 17 7.75662 17C7.75877 17 7.7609 17 7.76302 17C7.76514 17 7.76725 17 7.76934 17C7.77143 17 7.77351 17 7.77558 17C7.77765 17 7.7797 17 7.78174 17C7.78378 17 7.78581 17 7.78782 17C7.78984 17 7.79184 17 7.79382 17C7.79581 17 7.79778 17 7.79974 17C7.8017 17 7.80365 17 7.80558 17C7.80752 17 7.80944 17 7.81134 17C7.81325 17 7.81514 17 7.81702 17C7.8189 17 7.82076 17 7.82262 17C7.82447 17 7.82631 17 7.82813 17C7.82996 17 7.83177 17 7.83357 17C7.83536 17 7.83715 17 7.83892 17C7.84069 17 7.84244 17 7.84419 17C7.84593 17 7.84766 17 7.84937 17C7.85109 17 7.85279 17 7.85447 17C7.85616 17 7.85784 17 7.8595 17C7.86115 17 7.8628 17 7.86443 17C7.86606 17 7.86768 17 7.86929 17C7.87089 17 7.87248 17 7.87405 17C7.87563 17 7.87719 17 7.87874 17C7.88029 17 7.88182 17 7.88334 17C7.88486 17 7.88636 17 7.88786 17C7.88935 17 7.89082 17 7.89229 17C7.89375 17 7.8952 17 7.89663 17C7.89807 17 7.89949 17 7.90089 17C7.9023 17 7.90369 17 7.90507 17C7.90645 17 7.90781 17 7.90916 17C7.91051 17 7.91184 17 7.91316 17C7.91448 17 7.91578 17 7.91708 17C7.91837 17 7.91964 17 7.9209 17C7.92217 17 7.92341 17 7.92465 17C7.92588 17 7.9271 17 7.9283 17C7.9295 17 7.93069 17 7.93187 17C7.93304 17 7.9342 17 7.93535 17C7.93649 17 7.93762 17 7.93874 17C7.93986 17 7.94096 17 7.94204 17C7.94313 17 7.9442 17 7.94526 17C7.94631 17 7.94736 17 7.94838 17C7.94941 17 7.95042 17 7.95142 17C7.95242 17 7.9534 17 7.95437 17C7.95533 17 7.95629 17 7.95722 17C7.95816 17 7.95908 17 7.95999 17C7.9609 17 7.96179 17 7.96267 17C7.96355 17 7.96441 17 7.96526 17C7.9661 17 7.96694 17 7.96775 17C7.96857 17 7.96937 17 7.97016 17C7.97095 17 7.97172 17 7.97247 17C7.97323 17 7.97397 17 7.9747 17C7.97542 17 7.97613 17 7.97683 17C7.97752 17 7.9782 17 7.97887 17C7.97953 17 7.98018 17 7.98082 17C7.98145 17 7.98207 17 7.98267 17C7.98327 17 7.98386 17 7.98443 17C7.985 17 7.98556 17 7.9861 17C7.98664 17 7.98717 17 7.98768 17C7.98819 17 7.98868 17 7.98916 17C7.98964 17 7.9901 17 7.99055 17C7.991 17 7.99143 17 7.99184 17C7.99226 17 7.99266 17 7.99304 17C7.99343 17 7.9938 17 7.99415 17C7.9945 17 7.99484 17 7.99516 17C7.99548 17 7.99579 17 7.99608 17C7.99637 17 7.99664 17 7.9969 17C7.99716 17 7.9974 17 7.99762 17C7.99785 17 7.99806 17 7.99825 17C7.99845 17 7.99862 17 7.99879 17C7.99895 17 7.99909 17 7.99922 17C7.99935 17 7.99946 17 7.99956 17C7.99966 17 7.99974 17 7.9998 17C7.99987 17 7.99992 17 7.99995 17C7.99998 17 8 17 8 16.5C8 16 7.99998 16 7.99995 16C7.99992 16 7.99987 16 7.9998 16C7.99974 16 7.99966 16 7.99956 16C7.99946 16 7.99935 16 7.99922 16C7.99909 16 7.99895 16 7.99879 16C7.99862 16 7.99845 16 7.99825 16C7.99806 16 7.99785 16 7.99762 16C7.9974 16 7.99716 16 7.9969 16C7.99664 16 7.99637 16 7.99608 16C7.99579 16 7.99548 16 7.99516 16C7.99484 16 7.9945 16 7.99415 16C7.9938 16 7.99343 16 7.99304 16C7.99266 16 7.99226 16 7.99184 16C7.99143 16 7.991 16 7.99055 16C7.9901 16 7.98964 16 7.98916 16C7.98868 16 7.98819 16 7.98768 16C7.98717 16 7.98664 16 7.9861 16C7.98556 16 7.985 16 7.98443 16C7.98386 16 7.98327 16 7.98267 16C7.98207 16 7.98145 16 7.98082 16C7.98018 16 7.97953 16 7.97887 16C7.9782 16 7.97752 16 7.97683 16C7.97613 16 7.97542 16 7.9747 16C7.97397 16 7.97323 16 7.97247 16C7.97172 16 7.97095 16 7.97016 16C7.96937 16 7.96857 16 7.96775 16C7.96694 16 7.9661 16 7.96526 16C7.96441 16 7.96355 16 7.96267 16C7.96179 16 7.9609 16 7.95999 16C7.95908 16 7.95816 16 7.95722 16C7.95629 16 7.95533 16 7.95437 16C7.9534 16 7.95242 16 7.95142 16C7.95042 16 7.94941 16 7.94838 16C7.94736 16 7.94631 16 7.94526 16C7.9442 16 7.94313 16 7.94204 16C7.94096 16 7.93986 16 7.93874 16C7.93762 16 7.93649 16 7.93535 16C7.9342 16 7.93304 16 7.93187 16C7.93069 16 7.9295 16 7.9283 16C7.9271 16 7.92588 16 7.92465 16C7.92341 16 7.92217 16 7.9209 16C7.91964 16 7.91837 16 7.91708 16C7.91578 16 7.91448 16 7.91316 16C7.91184 16 7.91051 16 7.90916 16C7.90781 16 7.90645 16 7.90507 16C7.90369 16 7.9023 16 7.90089 16C7.89949 16 7.89807 16 7.89663 16C7.8952 16 7.89375 16 7.89229 16C7.89082 16 7.88935 16 7.88786 16C7.88636 16 7.88486 16 7.88334 16C7.88182 16 7.88029 16 7.87874 16C7.87719 16 7.87563 16 7.87405 16C7.87248 16 7.87089 16 7.86929 16C7.86768 16 7.86606 16 7.86443 16C7.8628 16 7.86115 16 7.8595 16C7.85784 16 7.85616 16 7.85447 16C7.85279 16 7.85109 16 7.84937 16C7.84766 16 7.84593 16 7.84419 16C7.84244 16 7.84069 16 7.83892 16C7.83715 16 7.83536 16 7.83357 16C7.83177 16 7.82996 16 7.82813 16C7.82631 16 7.82447 16 7.82262 16C7.82076 16 7.8189 16 7.81702 16C7.81514 16 7.81325 16 7.81134 16C7.80944 16 7.80752 16 7.80558 16C7.80365 16 7.8017 16 7.79974 16C7.79778 16 7.79581 16 7.79382 16C7.79184 16 7.78984 16 7.78782 16C7.78581 16 7.78378 16 7.78174 16C7.7797 16 7.77765 16 7.77558 16C7.77351 16 7.77143 16 7.76934 16C7.76725 16 7.76514 16 7.76302 16C7.7609 16 7.75877 16 7.75662 16C7.75448 16 7.75232 16 7.75015 16C7.74797 16 7.74579 16 7.74359 16C7.74139 16 7.73918 16 7.73696 16C7.73473 16 7.7325 16 7.73025 16C7.728 16 7.72573 16 7.72346 16C7.72118 16 7.71889 16 7.71659 16C7.71429 16 7.71197 16 7.70965 16C7.70732 16 7.70498 16 7.70263 16C7.70027 16 7.69791 16 7.69553 16C7.69315 16 7.69076 16 7.68835 16C7.68595 16 7.68353 16 7.6811 16C7.67867 16 7.67623 16 7.67378 16C7.67132 16 7.66886 16 7.66638 16C7.6639 16 7.66141 16 7.6589 16C7.6564 16 7.65388 16 7.65135 16C7.64882 16 7.64628 16 7.64372 16C7.64117 16 7.6386 16 7.63602 16C7.63344 16 7.63085 16 7.62824 16C7.62564 16 7.62302 16 7.6204 16C7.61777 16 7.61513 16 7.61247 16C7.60982 16 7.60715 16 7.60448 16C7.6018 16 7.59911 16 7.5964 16C7.5937 16 7.59099 16 7.58826 16C7.58553 16 7.5828 16 7.58005 16C7.57729 16 7.57453 16 7.57176 16C7.56898 16 7.5662 16 7.5634 16C7.5606 16 7.55779 16 7.55496 16C7.55214 16 7.54931 16 7.54646 16C7.54361 16 7.54075 16 7.53788 16C7.53501 16 7.53213 16 7.52924 16C7.52634 16 7.52344 16 7.52052 16C7.5176 16 7.51467 16 7.51173 16C7.50879 16 7.50583 16 7.50287 16C7.4999 16 7.49693 16 7.49394 16C7.49095 16 7.48795 16 7.48494 16C7.48193 16 7.47891 16 7.47587 16C7.47284 16 7.46979 16 7.46673 16C7.46368 16 7.46061 16 7.45753 16C7.45445 16 7.45135 16 7.44825 16C7.44515 16 7.44203 16 7.4389 16C7.43578 16 7.43264 16 7.42949 16C7.42634 16 7.42318 16 7.42001 16C7.41684 16 7.41365 16 7.41046 16C7.40727 16 7.40406 16 7.40084 16C7.39763 16 7.3944 16 7.39116 16C7.38792 16 7.38467 16 7.38141 16C7.37815 16 7.37487 16 7.37159 16C7.36831 16 7.36501 16 7.36171 16C7.3584 16 7.35508 16 7.35175 16C7.34843 16 7.34509 16 7.34174 16C7.33839 16 7.33503 16 7.33166 16C7.32828 16 7.3249 16 7.32151 16C7.31811 16 7.31471 16 7.31129 16C7.30788 16 7.30445 16 7.30102 16C7.29758 16 7.29413 16 7.29067 16C7.28721 16 7.28374 16 7.28026 16C7.27678 16 7.27329 16 7.26979 16C7.26629 16 7.26278 16 7.25926 16C7.25573 16 7.2522 16 7.24866 16C7.24511 16 7.24156 16 7.238 16C7.23443 16 7.23085 16 7.22727 16C7.22368 16 7.22009 16 7.21648 16C7.21287 16 7.20926 16 7.20563 16C7.202 16 7.19836 16 7.19471 16C7.19107 16 7.18741 16 7.18374 16C7.18007 16 7.17639 16 7.1727 16C7.16901 16 7.16531 16 7.1616 16C7.15789 16 7.15417 16 7.15044 16C7.14671 16 7.14297 16 7.13922 16C7.13547 16 7.13171 16 7.12794 16C7.12416 16 7.12038 16 7.11659 16C7.1128 16 7.109 16 7.10519 16C7.10138 16 7.09756 16 7.09372 16C7.08989 16 7.08605 16 7.0822 16C7.07835 16 7.07449 16 7.07062 16C7.06675 16 7.06287 16 7.05898 16C7.05508 16 7.05118 16 7.04727 16C7.04336 16 7.03944 16 7.03551 16C7.03158 16 7.02764 16 7.02369 16C7.01975 16 7.01579 16 7.01182 16C7.00785 16 7.00387 16 6.99988 16C6.99589 16 6.9919 16 6.98789 16C6.98388 16 6.97987 16 6.97584 16C6.97181 16 6.96778 16 6.96373 16C6.95969 16 6.95563 16 6.95157 16C6.9475 16 6.94343 16 6.93935 16C6.93526 16 6.93117 16 6.92707 16C6.92297 16 6.91886 16 6.91474 16C6.91062 16 6.90649 16 6.90235 16C6.89821 16 6.89406 16 6.8899 16C6.88574 16 6.88158 16 6.8774 16C6.87322 16 6.86904 16 6.86485 16C6.86065 16 6.85645 16 6.85223 16C6.84802 16 6.8438 16 6.83957 16C6.83534 16 6.8311 16 6.82685 16C6.8226 16 6.81834 16 6.81408 16C6.80981 16 6.80553 16 6.80125 16C6.79696 16 6.79267 16 6.78837 16C6.78407 16 6.77975 16 6.77543 16C6.77111 16 6.76678 16 6.76245 16C6.75811 16 6.75376 16 6.74941 16C6.74505 16 6.74069 16 6.73631 16C6.73194 16 6.72756 16 6.72317 16C6.71878 16 6.71438 16 6.70997 16C6.70556 16 6.70115 16 6.69672 16C6.6923 16 6.68786 16 6.68342 16C6.67898 16 6.67453 16 6.67007 16C6.66561 16 6.66114 16 6.65667 16C6.65219 16 6.64771 16 6.64321 16C6.63872 16 6.63422 16 6.62971 16C6.6252 16 6.62068 16 6.61616 16C6.61163 16 6.6071 16 6.60255 16C6.59801 16 6.59346 16 6.5889 16C6.58434 16 6.57977 16 6.5752 16C6.57062 16 6.56604 16 6.56144 16C6.55685 16 6.55225 16 6.54764 16C6.54303 16 6.53842 16 6.53379 16C6.52917 16 6.52454 16 6.51989 16C6.51525 16 6.5106 16 6.50595 16C6.50129 16 6.49663 16 6.49195 16C6.48728 16 6.4826 16 6.47791 16C6.47322 16 6.46853 16 6.46382 16C6.45912 16 6.45441 16 6.44969 16C6.44497 16 6.44024 16 6.4355 16C6.43077 16 6.42602 16 6.42127 16C6.41652 16 6.41176 16 6.407 16C6.40223 16 6.39746 16 6.39268 16C6.38789 16 6.3831 16 6.37831 16C6.37351 16 6.36871 16 6.36389 16C6.35908 16 6.35426 16 6.34944 16C6.34461 16 6.33977 16 6.33493 16C6.33009 16 6.32524 16 6.32038 16C6.31553 16 6.31066 16 6.30579 16C6.30092 16 6.29604 16 6.29115 16C6.28627 16 6.28137 16 6.27647 16C6.27157 16 6.26666 16 6.26175 16C6.25683 16 6.25191 16 6.24698 16C6.24205 16 6.23711 16 6.23217 16C6.22722 16 6.22227 16 6.21731 16C6.21235 16 6.20739 16 6.20242 16C6.19744 16 6.19246 16 6.18748 16C6.18249 16 6.1775 16 6.17249 16C6.16749 16 6.16249 16 6.15747 16C6.15246 16 6.14743 16 6.1424 16C6.13738 16 6.13234 16 6.1273 16C6.12226 16 6.11721 16 6.11215 16C6.10709 16 6.10203 16 6.09696 16C6.09189 16 6.08681 16 6.08173 16C6.07665 16 6.07156 16 6.06646 16C6.06137 16 6.05626 16 6.05115 16C6.04604 16 6.04093 16 6.0358 16C6.03068 16 6.02555 16 6.02041 16C6.01528 16 6.01013 16 6.00498 16C5.99983 16 5.99468 16 5.98952 16C5.98435 16 5.97919 16 5.97401 16C5.96883 16 5.96365 16 5.95846 16C5.95328 16 5.94808 16 5.94288 16C5.93768 16 5.93247 16 5.92726 16C5.92205 16 5.91683 16 5.9116 16C5.90637 16 5.90114 16 5.8959 16C5.89067 16 5.88542 16 5.88017 16C5.87492 16 5.86966 16 5.8644 16C5.85914 16 5.85387 16 5.84859 16C5.84332 16 5.83804 16 5.83275 16C5.82746 16 5.82217 16 5.81687 16C5.81157 16 5.80626 16 5.80095 16C5.79564 16 5.79032 16 5.785 16C5.77968 16 5.77435 16 5.76901 16C5.76368 16 5.75834 16 5.75299 16C5.74764 16 5.74229 16 5.73693 16C5.73157 16 5.72621 16 5.72084 16C5.71547 16 5.71009 16 5.70471 16C5.69933 16 5.69395 16 5.68855 16C5.68316 16 5.67776 16 5.67236 16C5.66695 16 5.66155 16 5.65613 16C5.65072 16 5.64529 16 5.63987 16C5.63444 16 5.62901 16 5.62357 16C5.61814 16 5.61269 16 5.60725 16C5.6018 16 5.59635 16 5.59089 16C5.58543 16 5.57996 16 5.57449 16C5.56903 16 5.56355 16 5.55807 16C5.55259 16 5.5471 16 5.54161 16C5.53612 16 5.53063 16 5.52513 16C5.51963 16 5.51412 16 5.50861 16C5.5031 16 5.49758 16 5.49206 16C5.48654 16 5.48101 16 5.47548 16C5.46994 16 5.46441 16 5.45887 16C5.45332 16 5.44778 16 5.44222 16C5.43667 16 5.43111 16 5.42555 16C5.41999 16 5.41442 16 5.40885 16C5.40328 16 5.3977 16 5.39212 16C5.38654 16 5.38095 16 5.37536 16C5.36977 16 5.36417 16 5.35857 16C5.35297 16 5.34736 16 5.34175 16C5.33614 16 5.33053 16 5.32491 16C5.31929 16 5.31366 16 5.30803 16C5.3024 16 5.29677 16 5.29113 16C5.28549 16 5.27985 16 5.2742 16C5.26855 16 5.2629 16 5.25724 16C5.25159 16 5.24593 16 5.24026 16C5.23459 16 5.22892 16 5.22325 16C5.21757 16 5.21189 16 5.20621 16C5.20053 16 5.19484 16 5.18915 16C5.18345 16 5.17776 16 5.17206 16C5.16636 16 5.16065 16 5.15494 16C5.14923 16 5.14352 16 5.1378 16C5.13208 16 5.12636 16 5.12063 16C5.11491 16 5.10917 16 5.10344 16C5.0977 16 5.09197 16 5.08622 16C5.08048 16 5.07473 16 5.06898 16C5.06323 16 5.05748 16 5.05172 16C5.04596 16 5.04019 16 5.03443 16C5.02866 16 5.02289 16 5.01711 16C5.01134 16 5.00556 16 4.99978 16C4.99399 16 4.98821 16 4.98242 16C4.97662 16 4.97083 16 4.96503 16C4.95923 16 4.95343 16 4.94763 16C4.94182 16 4.93601 16 4.9302 16C4.92438 16 4.91857 16 4.91275 16C4.90693 16 4.9011 16 4.89527 16C4.88945 16 4.88362 16 4.87778 16C4.87194 16 4.86611 16 4.86026 16C4.85442 16 4.84858 16 4.84273 16C4.83688 16 4.83103 16 4.82517 16C4.81931 16 4.81345 16 4.80759 16C4.80173 16 4.79586 16 4.78999 16C4.78412 16 4.77825 16 4.77237 16C4.7665 16 4.76062 16 4.75473 16C4.74885 16 4.74297 16 4.73708 16C4.73119 16 4.72529 16 4.7194 16C4.7135 16 4.7076 16 4.7017 16C4.6958 16 4.68989 16 4.68399 16C4.67808 16 4.67217 16 4.66625 16C4.66034 16 4.65442 16 4.6485 16C4.64258 16 4.63665 16 4.63073 16C4.6248 16 4.61887 16 4.61294 16C4.60701 16 4.60107 16 4.59513 16C4.58919 16 4.58325 16 4.57731 16C4.57137 16 4.56542 16 4.55947 16C4.55352 16 4.54757 16 4.54161 16C4.53566 16 4.5297 16 4.52374 16C4.51778 16 4.51181 16 4.50585 16C4.49988 16 4.49391 16 4.48794 16C4.48197 16 4.476 16 4.47002 16C4.46404 16 4.45806 16 4.45208 16C4.4461 16 4.44012 16 4.43413 16C4.42814 16 4.42216 16 4.41616 16C4.41017 16 4.40418 16 4.39818 16C4.39219 16 4.38619 16 4.38019 16C4.37418 16 4.36818 16 4.36217 16C4.35617 16 4.35016 16 4.34415 16C4.33814 16 4.33213 16 4.32611 16C4.3201 16 4.31408 16 4.30806 16C4.30204 16 4.29602 16 4.29 16C4.28397 16 4.27795 16 4.27192 16C4.26589 16 4.25986 16 4.25383 16C4.2478 16 4.24176 16 4.23573 16C4.22969 16 4.22365 16 4.21761 16C4.21157 16 4.20553 16 4.19948 16C4.19344 16 4.18739 16 4.18135 16C4.1753 16 4.16925 16 4.1632 16C4.15714 16 4.15109 16 4.14504 16C4.13898 16 4.13292 16 4.12686 16C4.12081 16 4.11475 16 4.10868 16C4.10262 16 4.09656 16 4.09049 16C4.08442 16 4.07836 16 4.07229 16C4.06622 16 4.06015 16 4.05408 16C4.048 16 4.04193 16 4.03586 16C4.02978 16 4.0237 16 4.01762 16C4.01155 16 4.00547 16 3.99938 16C3.9933 16 3.98722 16 3.98114 16C3.97505 16 3.96897 16 3.96288 16C3.95679 16 3.9507 16 3.94461 16C3.93852 16 3.93243 16 3.92634 16C3.92025 16 3.91416 16 3.90806 16C3.90197 16 3.89587 16 3.88977 16C3.88368 16 3.87758 16 3.87148 16C3.86538 16 3.85928 16 3.85317 16C3.84707 16 3.84097 16 3.83487 16C3.82876 16 3.82266 16 3.81655 16C3.81044 16 3.80434 16 3.79823 16C3.79212 16 3.78601 16 3.7799 16C3.77379 16 3.76768 16 3.76157 16C3.75546 16 3.74934 16 3.74323 16C3.73712 16 3.731 16 3.72489 16C3.71877 16 3.71266 16 3.70654 16C3.70042 16 3.6943 16 3.68819 16C3.68207 16 3.67595 16 3.66983 16C3.66371 16 3.65759 16 3.65147 16C3.64535 16 3.63923 16 3.6331 16C3.62698 16 3.62086 16 3.61473 16C3.60861 16 3.60249 16 3.59636 16C3.59024 16 3.58411 16 3.57799 16C3.57186 16 3.56574 16 3.55961 16C3.55348 16 3.54736 16 3.54123 16C3.5351 16 3.52898 16 3.52285 16C3.51672 16 3.51059 16 3.50446 16C3.49833 16 3.49221 16 3.48608 16C3.47995 16 3.47382 16 3.46769 16C3.46156 16 3.45543 16 3.4493 16C3.44317 16 3.43704 16 3.43091 16C3.42478 16 3.41865 16 3.41252 16C3.40639 16 3.40026 16 3.39413 16C3.388 16 3.38187 16 3.37574 16C3.36961 16 3.36348 16 3.35735 16C3.35122 16 3.34509 16 3.33896 16C3.33283 16 3.3267 16 3.32057 16C3.31444 16 3.30831 16 3.30218 16C3.29605 16 3.28992 16 3.28379 16C3.27766 16 3.27153 16 3.2654 16C3.25927 16 3.25314 16 3.24702 16C3.24089 16 3.23476 16 3.22863 16C3.22251 16 3.21638 16 3.21025 16C3.20413 16 3.198 16 3.19187 16C3.18575 16 3.17962 16 3.1735 16C3.16737 16 3.16125 16 3.15513 16C3.149 16 3.14288 16 3.13676 16C3.13063 16 3.12451 16 3.11839 16C3.11227 16 3.10615 16 3.10003 16C3.09391 16 3.08779 16 3.08167 16C3.07555 16 3.06943 16 3.06331 16C3.0572 16 3.05108 16 3.04496 16C3.03885 16 3.03273 16 3.02662 16C3.0205 16 3.01439 16 3.00828 16C3.00217 16 2.99605 16 2.98994 16C2.98383 16 2.97772 16 2.97161 16C2.96551 16 2.9594 16 2.95329 16C2.94718 16 2.94108 16 2.93497 16C2.92887 16 2.92276 16 2.91666 16C2.91056 16 2.90446 16 2.89836 16C2.89226 16 2.88616 16 2.88006 16C2.87396 16 2.86786 16 2.86177 16C2.85567 16 2.84958 16 2.84348 16C2.83739 16 2.8313 16 2.82521 16C2.81912 16 2.81303 16 2.80694 16C2.80085 16 2.79477 16 2.78868 16C2.7826 16 2.77651 16 2.77043 16C2.76435 16 2.75827 16 2.75219 16C2.74611 16 2.74003 16 2.73395 16C2.72788 16 2.7218 16 2.71573 16C2.70965 16 2.70358 16 2.69751 16C2.69144 16 2.68537 16 2.67931 16C2.67324 16 2.66717 16 2.66111 16C2.65505 16 2.64899 16 2.64293 16C2.63687 16 2.63081 16 2.62475 16C2.61869 16 2.61264 16 2.60659 16C2.60053 16 2.59448 16 2.58843 16C2.58238 16 2.57634 16 2.57029 16C2.56425 16 2.5582 16 2.55216 16C2.54612 16 2.54008 16 2.53404 16C2.528 16 2.52197 16 2.51593 16C2.5099 16 2.50387 16 2.49784 16C2.49181 16 2.48578 16 2.47976 16C2.47373 16 2.46771 16 2.46169 16C2.45567 16 2.44965 16 2.44363 16C2.43761 16 2.4316 16 2.42559 16C2.41958 16 2.41357 16 2.40756 16C2.40155 16 2.39555 16 2.38954 16C2.38354 16 2.37754 16 2.37154 16C2.36554 16 2.35955 16 2.35355 16C2.34756 16 2.34157 16 2.33558 16C2.32959 16 2.32361 16 2.31762 16C2.31164 16 2.30566 16 2.29968 16C2.2937 16 2.28773 16 2.28175 16C2.27578 16 2.26981 16 2.26384 16C2.25787 16 2.25191 16 2.24595 16C2.23998 16 2.23402 16 2.22807 16C2.22211 16 2.21616 16 2.2102 16C2.20425 16 2.1983 16 2.19236 16C2.18641 16 2.18047 16 2.17453 16C2.16859 16 2.16265 16 2.15672 16C2.15078 16 2.14485 16 2.13892 16C2.13299 16 2.12707 16 2.12114 16C2.11522 16 2.1093 16 2.10338 16C2.09747 16 2.09155 16 2.08564 16C2.07973 16 2.07383 16 2.06792 16C2.06202 16 2.05612 16 2.05022 16C2.04432 16 2.03842 16 2.03253 16C2.02664 16 2.02075 16 2.01487 16C2.00898 16 2.0031 16 1.99722 16C1.99134 16 1.98547 16 1.97959 16C1.97372 16 1.96785 16 1.96199 16C1.95612 16 1.95026 16 1.9444 16C1.93854 16 1.93269 16 1.92684 16C1.92099 16 1.91514 16 1.90929 16C1.90345 16 1.89761 16 1.89177 16C1.88593 16 1.8801 16 1.87427 16C1.86844 16 1.86261 16 1.85679 16C1.85096 16 1.84514 16 1.83933 16C1.83351 16 1.8277 16 1.82189 16C1.81608 16 1.81028 16 1.80448 16C1.79868 16 1.79288 16 1.78709 16C1.78129 16 1.7755 16 1.76972 16C1.76393 16 1.75815 16 1.75237 16C1.7466 16 1.74082 16 1.73505 16C1.72928 16 1.72351 16 1.71775 16C1.71199 16 1.70623 16 1.70048 16C1.69472 16 1.68897 16 1.68323 16C1.67748 16 1.67174 16 1.666 16C1.66026 16 1.65453 16 1.6488 16C1.64307 16 1.63735 16 1.63163 16C1.6259 16 1.62019 16 1.61447 16C1.60876 16 1.60305 16 1.59735 16C1.59165 16 1.58595 16 1.58025 16C1.57455 16 1.56886 16 1.56318 16C1.55749 16 1.55181 16 1.54613 16C1.54045 16 1.53478 16 1.52911 16C1.52344 16 1.51777 16 1.51211 16C1.50645 16 1.5008 16 1.49515 16C1.4895 16 1.48385 16 1.47821 16C1.47257 16 1.46693 16 1.4613 16C1.45566 16 1.45003 16 1.44441 16C1.43879 16 1.43317 16 1.42756 16C1.42194 16 1.41633 16 1.41073 16C1.40512 16 1.39952 16 1.39393 16C1.38833 16 1.38274 16 1.37716 16C1.37157 16 1.36599 16 1.36042 16C1.35484 16 1.34927 16 1.3437 16C1.33814 16 1.33258 16 1.32702 16C1.32147 16 1.31592 16 1.31037 16C1.30482 16 1.29928 16 1.29375 16C1.28821 16 1.28268 16 1.27716 16C1.27163 16 1.26611 16 1.26059 16C1.25508 16 1.24957 16 1.24406 16C1.23856 16 1.23306 16 1.22757 16C1.22207 16 1.21658 16 1.2111 16C1.20561 16 1.20014 16 1.19466 16C1.18919 16 1.18372 16 1.17826 16C1.1728 16 1.16734 16 1.16189 16C1.15643 16 1.15099 16 1.14555 16C1.14011 16 1.13467 16 1.12924 16C1.12381 16 1.11839 16 1.11297 16C1.10755 16 1.10214 16 1.09673 16C1.09132 16 1.08592 16 1.08052 16C1.07512 16 1.06973 16 1.06435 16C1.05896 16 1.05358 16 1.04821 16C1.04284 16 1.03747 16 1.03211 16C1.02674 16 1.02139 16 1.01604 16C1.01068 16 1.00534 16 1 16V17Z" fill="#526359"/>
<path d="M5 13C5 12.7239 4.77614 12.5 4.5 12.5C4.22386 12.5 4 12.7239 4 13L5 13ZM4 20C4 20.2761 4.22386 20.5 4.5 20.5C4.77614 20.5 5 20.2761 5 20L4 20ZM4 13C4 13.0053 4 13.0107 4 13.016C4 13.0214 4 13.0267 4 13.0321C4 13.0375 4 13.0428 4 13.0482C4 13.0536 4 13.059 4 13.0643C4 13.0697 4 13.0751 4 13.0805C4 13.0859 4 13.0913 4 13.0967C4 13.1021 4 13.1075 4 13.113C4 13.1184 4 13.1238 4 13.1292C4 13.1347 4 13.1401 4 13.1455C4 13.151 4 13.1564 4 13.1619C4 13.1673 4 13.1728 4 13.1783C4 13.1837 4 13.1892 4 13.1947C4 13.2001 4 13.2056 4 13.2111C4 13.2166 4 13.2221 4 13.2276C4 13.2331 4 13.2386 4 13.2441C4 13.2496 4 13.2551 4 13.2606C4 13.2661 4 13.2716 4 13.2772C4 13.2827 4 13.2882 4 13.2937C4 13.2993 4 13.3048 4 13.3104C4 13.3159 4 13.3215 4 13.327C4 13.3326 4 13.3381 4 13.3437C4 13.3493 4 13.3548 4 13.3604C4 13.366 4 13.3716 4 13.3772C4 13.3827 4 13.3883 4 13.3939C4 13.3995 4 13.4051 4 13.4107C4 13.4163 4 13.4219 4 13.4276C4 13.4332 4 13.4388 4 13.4444C4 13.45 4 13.4557 4 13.4613C4 13.4669 4 13.4726 4 13.4782C4 13.4838 4 13.4895 4 13.4951C4 13.5008 4 13.5065 4 13.5121C4 13.5178 4 13.5234 4 13.5291C4 13.5348 4 13.5405 4 13.5461C4 13.5518 4 13.5575 4 13.5632C4 13.5689 4 13.5746 4 13.5802C4 13.5859 4 13.5916 4 13.5973C4 13.6031 4 13.6088 4 13.6145C4 13.6202 4 13.6259 4 13.6316C4 13.6373 4 13.6431 4 13.6488C4 13.6545 4 13.6603 4 13.666C4 13.6717 4 13.6775 4 13.6832C4 13.689 4 13.6947 4 13.7005C4 13.7062 4 13.712 4 13.7178C4 13.7235 4 13.7293 4 13.7351C4 13.7408 4 13.7466 4 13.7524C4 13.7582 4 13.7639 4 13.7697C4 13.7755 4 13.7813 4 13.7871C4 13.7929 4 13.7987 4 13.8045C4 13.8103 4 13.8161 4 13.8219C4 13.8277 4 13.8335 4 13.8393C4 13.8451 4 13.851 4 13.8568C4 13.8626 4 13.8684 4 13.8743C4 13.8801 4 13.8859 4 13.8918C4 13.8976 4 13.9034 4 13.9093C4 13.9151 4 13.921 4 13.9268C4 13.9327 4 13.9385 4 13.9444C4 13.9503 4 13.9561 4 13.962C4 13.9679 4 13.9737 4 13.9796C4 13.9855 4 13.9913 4 13.9972C4 14.0031 4 14.009 4 14.0149C4 14.0208 4 14.0266 4 14.0325C4 14.0384 4 14.0443 4 14.0502C4 14.0561 4 14.062 4 14.0679C4 14.0738 4 14.0797 4 14.0856C4 14.0916 4 14.0975 4 14.1034C4 14.1093 4 14.1152 4 14.1211C4 14.1271 4 14.133 4 14.1389C4 14.1448 4 14.1508 4 14.1567C4 14.1627 4 14.1686 4 14.1745C4 14.1805 4 14.1864 4 14.1924C4 14.1983 4 14.2043 4 14.2102C4 14.2162 4 14.2221 4 14.2281C4 14.234 4 14.24 4 14.2459C4 14.2519 4 14.2579 4 14.2638C4 14.2698 4 14.2758 4 14.2818C4 14.2877 4 14.2937 4 14.2997C4 14.3057 4 14.3116 4 14.3176C4 14.3236 4 14.3296 4 14.3356C4 14.3416 4 14.3476 4 14.3536C4 14.3595 4 14.3655 4 14.3715C4 14.3775 4 14.3835 4 14.3895C4 14.3955 4 14.4016 4 14.4076C4 14.4136 4 14.4196 4 14.4256C4 14.4316 4 14.4376 4 14.4436C4 14.4496 4 14.4557 4 14.4617C4 14.4677 4 14.4737 4 14.4798C4 14.4858 4 14.4918 4 14.4978C4 14.5039 4 14.5099 4 14.5159C4 14.522 4 14.528 4 14.534C4 14.5401 4 14.5461 4 14.5522C4 14.5582 4 14.5642 4 14.5703C4 14.5763 4 14.5824 4 14.5884C4 14.5945 4 14.6005 4 14.6066C4 14.6126 4 14.6187 4 14.6248C4 14.6308 4 14.6369 4 14.6429C4 14.649 4 14.655 4 14.6611C4 14.6672 4 14.6732 4 14.6793C4 14.6854 4 14.6914 4 14.6975C4 14.7036 4 14.7097 4 14.7157C4 14.7218 4 14.7279 4 14.734C4 14.74 4 14.7461 4 14.7522C4 14.7583 4 14.7643 4 14.7704C4 14.7765 4 14.7826 4 14.7887C4 14.7948 4 14.8009 4 14.8069C4 14.813 4 14.8191 4 14.8252C4 14.8313 4 14.8374 4 14.8435C4 14.8496 4 14.8557 4 14.8618C4 14.8679 4 14.874 4 14.8801C4 14.8862 4 14.8923 4 14.8984C4 14.9045 4 14.9106 4 14.9167C4 14.9228 4 14.9289 4 14.935C4 14.9411 4 14.9472 4 14.9533C4 14.9594 4 14.9655 4 14.9716C4 14.9777 4 14.9838 4 14.9899C4 14.9961 4 15.0022 4 15.0083C4 15.0144 4 15.0205 4 15.0266C4 15.0327 4 15.0388 4 15.045C4 15.0511 4 15.0572 4 15.0633C4 15.0694 4 15.0755 4 15.0817C4 15.0878 4 15.0939 4 15.1C4 15.1061 4 15.1123 4 15.1184C4 15.1245 4 15.1306 4 15.1368C4 15.1429 4 15.149 4 15.1551C4 15.1612 4 15.1674 4 15.1735C4 15.1796 4 15.1857 4 15.1919C4 15.198 4 15.2041 4 15.2103C4 15.2164 4 15.2225 4 15.2286C4 15.2348 4 15.2409 4 15.247C4 15.2531 4 15.2593 4 15.2654C4 15.2715 4 15.2777 4 15.2838C4 15.2899 4 15.296 4 15.3022C4 15.3083 4 15.3144 4 15.3206C4 15.3267 4 15.3328 4 15.339C4 15.3451 4 15.3512 4 15.3573C4 15.3635 4 15.3696 4 15.3757C4 15.3819 4 15.388 4 15.3941C4 15.4003 4 15.4064 4 15.4125C4 15.4187 4 15.4248 4 15.4309C4 15.437 4 15.4432 4 15.4493C4 15.4554 4 15.4616 4 15.4677C4 15.4738 4 15.4799 4 15.4861C4 15.4922 4 15.4983 4 15.5045C4 15.5106 4 15.5167 4 15.5228C4 15.529 4 15.5351 4 15.5412C4 15.5474 4 15.5535 4 15.5596C4 15.5657 4 15.5719 4 15.578C4 15.5841 4 15.5902 4 15.5964C4 15.6025 4 15.6086 4 15.6147C4 15.6209 4 15.627 4 15.6331C4 15.6392 4 15.6453 4 15.6515C4 15.6576 4 15.6637 4 15.6698C4 15.6759 4 15.6821 4 15.6882C4 15.6943 4 15.7004 4 15.7065C4 15.7127 4 15.7188 4 15.7249C4 15.731 4 15.7371 4 15.7432C4 15.7493 4 15.7555 4 15.7616C4 15.7677 4 15.7738 4 15.7799C4 15.786 4 15.7921 4 15.7982C4 15.8043 4 15.8104 4 15.8166C4 15.8227 4 15.8288 4 15.8349C4 15.841 4 15.8471 4 15.8532C4 15.8593 4 15.8654 4 15.8715C4 15.8776 4 15.8837 4 15.8898C4 15.8959 4 15.902 4 15.9081C4 15.9142 4 15.9202 4 15.9263C4 15.9324 4 15.9385 4 15.9446C4 15.9507 4 15.9568 4 15.9629C4 15.969 4 15.9751 4 15.9811C4 15.9872 4 15.9933 4 15.9994C4 16.0055 4 16.0115 4 16.0176C4 16.0237 4 16.0298 4 16.0359C4 16.0419 4 16.048 4 16.0541C4 16.0601 4 16.0662 4 16.0723C4 16.0784 4 16.0844 4 16.0905C4 16.0966 4 16.1026 4 16.1087C4 16.1147 4 16.1208 4 16.1269C4 16.1329 4 16.139 4 16.145C4 16.1511 4 16.1571 4 16.1632C4 16.1692 4 16.1753 4 16.1813C4 16.1874 4 16.1934 4 16.1995C4 16.2055 4 16.2116 4 16.2176C4 16.2237 4 16.2297 4 16.2357C4 16.2418 4 16.2478 4 16.2538C4 16.2599 4 16.2659 4 16.2719C4 16.2779 4 16.284 4 16.29C4 16.296 4 16.302 4 16.3081C4 16.3141 4 16.3201 4 16.3261C4 16.3321 4 16.3381 4 16.3442C4 16.3502 4 16.3562 4 16.3622C4 16.3682 4 16.3742 4 16.3802C4 16.3862 4 16.3922 4 16.3982C4 16.4042 4 16.4102 4 16.4162C4 16.4222 4 16.4281 4 16.4341C4 16.4401 4 16.4461 4 16.4521C4 16.4581 4 16.464 4 16.47C4 16.476 4 16.482 4 16.4879C4 16.4939 4 16.4999 4 16.5058C4 16.5118 4 16.5178 4 16.5237C4 16.5297 4 16.5357 4 16.5416C4 16.5476 4 16.5535 4 16.5595C4 16.5654 4 16.5714 4 16.5773C4 16.5833 4 16.5892 4 16.5951C4 16.6011 4 16.607 4 16.6129C4 16.6189 4 16.6248 4 16.6307C4 16.6367 4 16.6426 4 16.6485C4 16.6544 4 16.6603 4 16.6663C4 16.6722 4 16.6781 4 16.684C4 16.6899 4 16.6958 4 16.7017C4 16.7076 4 16.7135 4 16.7194C4 16.7253 4 16.7312 4 16.7371C4 16.743 4 16.7489 4 16.7547C4 16.7606 4 16.7665 4 16.7724C4 16.7782 4 16.7841 4 16.79C4 16.7959 4 16.8017 4 16.8076C4 16.8135 4 16.8193 4 16.8252C4 16.831 4 16.8369 4 16.8427C4 16.8486 4 16.8544 4 16.8603C4 16.8661 4 16.8719 4 16.8778C4 16.8836 4 16.8894 4 16.8953C4 16.9011 4 16.9069 4 16.9127C4 16.9186 4 16.9244 4 16.9302C4 16.936 4 16.9418 4 16.9476C4 16.9534 4 16.9592 4 16.965C4 16.9708 4 16.9766 4 16.9824C4 16.9882 4 16.994 4 16.9998C4 17.0056 4 17.0113 4 17.0171C4 17.0229 4 17.0287 4 17.0344C4 17.0402 4 17.046 4 17.0517C4 17.0575 4 17.0632 4 17.069C4 17.0747 4 17.0805 4 17.0862C4 17.092 4 17.0977 4 17.1034C4 17.1092 4 17.1149 4 17.1206C4 17.1264 4 17.1321 4 17.1378C4 17.1435 4 17.1492 4 17.1549C4 17.1607 4 17.1664 4 17.1721C4 17.1778 4 17.1835 4 17.1891C4 17.1948 4 17.2005 4 17.2062C4 17.2119 4 17.2176 4 17.2232C4 17.2289 4 17.2346 4 17.2403C4 17.2459 4 17.2516 4 17.2572C4 17.2629 4 17.2686 4 17.2742C4 17.2798 4 17.2855 4 17.2911C4 17.2968 4 17.3024 4 17.308C4 17.3137 4 17.3193 4 17.3249C4 17.3305 4 17.3361 4 17.3418C4 17.3474 4 17.353 4 17.3586C4 17.3642 4 17.3698 4 17.3754C4 17.381 4 17.3865 4 17.3921C4 17.3977 4 17.4033 4 17.4089C4 17.4144 4 17.42 4 17.4256C4 17.4311 4 17.4367 4 17.4422C4 17.4478 4 17.4533 4 17.4589C4 17.4644 4 17.4699 4 17.4755C4 17.481 4 17.4865 4 17.4921C4 17.4976 4 17.5031 4 17.5086C4 17.5141 4 17.5196 4 17.5251C4 17.5306 4 17.5361 4 17.5416C4 17.5471 4 17.5526 4 17.5581C4 17.5636 4 17.569 4 17.5745C4 17.58 4 17.5854 4 17.5909C4 17.5963 4 17.6018 4 17.6072C4 17.6127 4 17.6181 4 17.6236C4 17.629 4 17.6344 4 17.6399C4 17.6453 4 17.6507 4 17.6561C4 17.6615 4 17.667 4 17.6724C4 17.6778 4 17.6832 4 17.6886C4 17.6939 4 17.6993 4 17.7047C4 17.7101 4 17.7155 4 17.7208C4 17.7262 4 17.7316 4 17.7369C4 17.7423 4 17.7476 4 17.753C4 17.7583 4 17.7637 4 17.769C4 17.7743 4 17.7797 4 17.785C4 17.7903 4 17.7956 4 17.801C4 17.8063 4 17.8116 4 17.8169C4 17.8222 4 17.8275 4 17.8327C4 17.838 4 17.8433 4 17.8486C4 17.8539 4 17.8591 4 17.8644C4 17.8697 4 17.8749 4 17.8802C4 17.8854 4 17.8907 4 17.8959C4 17.9011 4 17.9064 4 17.9116C4 17.9168 4 17.922 4 17.9273C4 17.9325 4 17.9377 4 17.9429C4 17.9481 4 17.9533 4 17.9585C4 17.9637 4 17.9688 4 17.974C4 17.9792 4 17.9844 4 17.9895C4 17.9947 4 17.9998 4 18.005C4 18.0101 4 18.0153 4 18.0204C4 18.0255 4 18.0307 4 18.0358C4 18.0409 4 18.046 4 18.0512C4 18.0563 4 18.0614 4 18.0665C4 18.0716 4 18.0766 4 18.0817C4 18.0868 4 18.0919 4 18.097C4 18.102 4 18.1071 4 18.1121C4 18.1172 4 18.1223 4 18.1273C4 18.1323 4 18.1374 4 18.1424C4 18.1474 4 18.1525 4 18.1575C4 18.1625 4 18.1675 4 18.1725C4 18.1775 4 18.1825 4 18.1875C4 18.1925 4 18.1974 4 18.2024C4 18.2074 4 18.2124 4 18.2173C4 18.2223 4 18.2272 4 18.2322C4 18.2371 4 18.242 4 18.247C4 18.2519 4 18.2568 4 18.2617C4 18.2667 4 18.2716 4 18.2765C4 18.2814 4 18.2863 4 18.2912C4 18.296 4 18.3009 4 18.3058C4 18.3107 4 18.3155 4 18.3204C4 18.3252 4 18.3301 4 18.3349C4 18.3398 4 18.3446 4 18.3494C4 18.3543 4 18.3591 4 18.3639C4 18.3687 4 18.3735 4 18.3783C4 18.3831 4 18.3879 4 18.3927C4 18.3975 4 18.4022 4 18.407C4 18.4118 4 18.4165 4 18.4213C4 18.426 4 18.4308 4 18.4355C4 18.4402 4 18.445 4 18.4497C4 18.4544 4 18.4591 4 18.4638C4 18.4685 4 18.4732 4 18.4779C4 18.4826 4 18.4873 4 18.492C4 18.4966 4 18.5013 4 18.5059C4 18.5106 4 18.5153 4 18.5199C4 18.5245 4 18.5292 4 18.5338C4 18.5384 4 18.543 4 18.5476C4 18.5523 4 18.5569 4 18.5614C4 18.566 4 18.5706 4 18.5752C4 18.5798 4 18.5843 4 18.5889C4 18.5935 4 18.598 4 18.6026C4 18.6071 4 18.6116 4 18.6162C4 18.6207 4 18.6252 4 18.6297C4 18.6342 4 18.6387 4 18.6432C4 18.6477 4 18.6522 4 18.6567C4 18.6611 4 18.6656 4 18.6701C4 18.6745 4 18.679 4 18.6834C4 18.6879 4 18.6923 4 18.6967C4 18.7011 4 18.7056 4 18.71C4 18.7144 4 18.7188 4 18.7232C4 18.7276 4 18.7319 4 18.7363C4 18.7407 4 18.7451 4 18.7494C4 18.7538 4 18.7581 4 18.7624C4 18.7668 4 18.7711 4 18.7754C4 18.7798 4 18.7841 4 18.7884C4 18.7927 4 18.797 4 18.8012C4 18.8055 4 18.8098 4 18.8141C4 18.8183 4 18.8226 4 18.8268C4 18.8311 4 18.8353 4 18.8396C4 18.8438 4 18.848 4 18.8522C4 18.8564 4 18.8607 4 18.8648C4 18.869 4 18.8732 4 18.8774C4 18.8816 4 18.8857 4 18.8899C4 18.8941 4 18.8982 4 18.9023C4 18.9065 4 18.9106 4 18.9147C4 18.9189 4 18.923 4 18.9271C4 18.9312 4 18.9353 4 18.9393C4 18.9434 4 18.9475 4 18.9516C4 18.9556 4 18.9597 4 18.9637C4 18.9678 4 18.9718 4 18.9758C4 18.9799 4 18.9839 4 18.9879C4 18.9919 4 18.9959 4 18.9999C4 19.0039 4 19.0078 4 19.0118C4 19.0158 4 19.0197 4 19.0237C4 19.0276 4 19.0316 4 19.0355C4 19.0394 4 19.0434 4 19.0473C4 19.0512 4 19.0551 4 19.059C4 19.0629 4 19.0667 4 19.0706C4 19.0745 4 19.0783 4 19.0822C4 19.0861 4 19.0899 4 19.0937C4 19.0976 4 19.1014 4 19.1052C4 19.109 4 19.1128 4 19.1166C4 19.1204 4 19.1242 4 19.1279C4 19.1317 4 19.1355 4 19.1392C4 19.143 4 19.1467 4 19.1504C4 19.1542 4 19.1579 4 19.1616C4 19.1653 4 19.169 4 19.1727C4 19.1764 4 19.1801 4 19.1837C4 19.1874 4 19.1911 4 19.1947C4 19.1984 4 19.202 4 19.2056C4 19.2093 4 19.2129 4 19.2165C4 19.2201 4 19.2237 4 19.2273C4 19.2309 4 19.2344 4 19.238C4 19.2416 4 19.2451 4 19.2487C4 19.2522 4 19.2557 4 19.2593C4 19.2628 4 19.2663 4 19.2698C4 19.2733 4 19.2768 4 19.2803C4 19.2837 4 19.2872 4 19.2907C4 19.2941 4 19.2976 4 19.301C4 19.3045 4 19.3079 4 19.3113C4 19.3147 4 19.3181 4 19.3215C4 19.3249 4 19.3283 4 19.3317C4 19.335 4 19.3384 4 19.3417C4 19.3451 4 19.3484 4 19.3518C4 19.3551 4 19.3584 4 19.3617C4 19.365 4 19.3683 4 19.3716C4 19.3749 4 19.3781 4 19.3814C4 19.3847 4 19.3879 4 19.3912C4 19.3944 4 19.3976 4 19.4008C4 19.4041 4 19.4073 4 19.4105C4 19.4137 4 19.4168 4 19.42C4 19.4232 4 19.4263 4 19.4295C4 19.4326 4 19.4358 4 19.4389C4 19.442 4 19.4451 4 19.4482C4 19.4514 4 19.4544 4 19.4575C4 19.4606 4 19.4637 4 19.4667C4 19.4698 4 19.4728 4 19.4759C4 19.4789 4 19.4819 4 19.4849C4 19.488 4 19.491 4 19.4939C4 19.4969 4 19.4999 4 19.5029C4 19.5058 4 19.5088 4 19.5117C4 19.5147 4 19.5176 4 19.5205C4 19.5234 4 19.5263 4 19.5292C4 19.5321 4 19.535 4 19.5379C4 19.5408 4 19.5436 4 19.5465C4 19.5493 4 19.5521 4 19.555C4 19.5578 4 19.5606 4 19.5634C4 19.5662 4 19.569 4 19.5718C4 19.5745 4 19.5773 4 19.58C4 19.5828 4 19.5855 4 19.5883C4 19.591 4 19.5937 4 19.5964C4 19.5991 4 19.6018 4 19.6045C4 19.6072 4 19.6098 4 19.6125C4 19.6151 4 19.6178 4 19.6204C4 19.623 4 19.6256 4 19.6282C4 19.6308 4 19.6334 4 19.636C4 19.6386 4 19.6412 4 19.6437C4 19.6463 4 19.6488 4 19.6513C4 19.6539 4 19.6564 4 19.6589C4 19.6614 4 19.6639 4 19.6664C4 19.6689 4 19.6713 4 19.6738C4 19.6762 4 19.6787 4 19.6811C4 19.6835 4 19.686 4 19.6884C4 19.6908 4 19.6931 4 19.6955C4 19.6979 4 19.7003 4 19.7026C4 19.705 4 19.7073 4 19.7096C4 19.712 4 19.7143 4 19.7166C4 19.7189 4 19.7212 4 19.7235C4 19.7257 4 19.728 4 19.7302C4 19.7325 4 19.7347 4 19.737C4 19.7392 4 19.7414 4 19.7436C4 19.7458 4 19.748 4 19.7501C4 19.7523 4 19.7545 4 19.7566C4 19.7588 4 19.7609 4 19.763C4 19.7651 4 19.7672 4 19.7693C4 19.7714 4 19.7735 4 19.7756C4 19.7776 4 19.7797 4 19.7817C4 19.7838 4 19.7858 4 19.7878C4 19.7898 4 19.7918 4 19.7938C4 19.7958 4 19.7978 4 19.7997C4 19.8017 4 19.8036 4 19.8056C4 19.8075 4 19.8094 4 19.8113C4 19.8132 4 19.8151 4 19.817C4 19.8189 4 19.8208 4 19.8226C4 19.8245 4 19.8263 4 19.8281C4 19.83 4 19.8318 4 19.8336C4 19.8354 4 19.8371 4 19.8389C4 19.8407 4 19.8424 4 19.8442C4 19.8459 4 19.8477 4 19.8494C4 19.8511 4 19.8528 4 19.8545C4 19.8562 4 19.8578 4 19.8595C4 19.8612 4 19.8628 4 19.8644C4 19.8661 4 19.8677 4 19.8693C4 19.8709 4 19.8725 4 19.8741C4 19.8756 4 19.8772 4 19.8787C4 19.8803 4 19.8818 4 19.8833C4 19.8849 4 19.8864 4 19.8879C4 19.8893 4 19.8908 4 19.8923C4 19.8937 4 19.8952 4 19.8966C4 19.8981 4 19.8995 4 19.9009C4 19.9023 4 19.9037 4 19.9051C4 19.9064 4 19.9078 4 19.9092C4 19.9105 4 19.9118 4 19.9132C4 19.9145 4 19.9158 4 19.9171C4 19.9184 4 19.9196 4 19.9209C4 19.9222 4 19.9234 4 19.9246C4 19.9259 4 19.9271 4 19.9283C4 19.9295 4 19.9307 4 19.9319C4 19.933 4 19.9342 4 19.9353C4 19.9365 4 19.9376 4 19.9387C4 19.9399 4 19.941 4 19.942C4 19.9431 4 19.9442 4 19.9453C4 19.9463 4 19.9474 4 19.9484C4 19.9494 4 19.9504 4 19.9514C4 19.9524 4 19.9534 4 19.9544C4 19.9553 4 19.9563 4 19.9572C4 19.9582 4 19.9591 4 19.96C4 19.9609 4 19.9618 4 19.9627C4 19.9635 4 19.9644 4 19.9653C4 19.9661 4 19.9669 4 19.9678C4 19.9686 4 19.9694 4 19.9702C4 19.9709 4 19.9717 4 19.9725C4 19.9732 4 19.974 4 19.9747C4 19.9754 4 19.9761 4 19.9768C4 19.9775 4 19.9782 4 19.9789C4 19.9795 4 19.9802 4 19.9808C4 19.9814 4 19.9821 4 19.9827C4 19.9833 4 19.9839 4 19.9844C4 19.985 4 19.9856 4 19.9861C4 19.9866 4 19.9872 4 19.9877C4 19.9882 4 19.9887 4 19.9892C4 19.9896 4 19.9901 4 19.9905C4 19.991 4 19.9914 4 19.9918C4 19.9923 4 19.9927 4 19.993C4 19.9934 4 19.9938 4 19.9941C4 19.9945 4 19.9948 4 19.9952C4 19.9955 4 19.9958 4 19.9961C4 19.9964 4 19.9966 4 19.9969C4 19.9972 4 19.9974 4 19.9976C4 19.9978 4 19.9981 4 19.9983C4 19.9984 4 19.9986 4 19.9988C4 19.9989 4 19.9991 4 19.9992C4 19.9994 4 19.9995 4 19.9996C4 19.9997 4 19.9997 4 19.9998C4 19.9999 4 19.9999 4 20C4 20 4 20 4.5 20C5 20 5 20 5 20C5 19.9999 5 19.9999 5 19.9998C5 19.9997 5 19.9997 5 19.9996C5 19.9995 5 19.9994 5 19.9992C5 19.9991 5 19.9989 5 19.9988C5 19.9986 5 19.9984 5 19.9983C5 19.9981 5 19.9978 5 19.9976C5 19.9974 5 19.9972 5 19.9969C5 19.9966 5 19.9964 5 19.9961C5 19.9958 5 19.9955 5 19.9952C5 19.9948 5 19.9945 5 19.9941C5 19.9938 5 19.9934 5 19.993C5 19.9927 5 19.9923 5 19.9918C5 19.9914 5 19.991 5 19.9905C5 19.9901 5 19.9896 5 19.9892C5 19.9887 5 19.9882 5 19.9877C5 19.9872 5 19.9866 5 19.9861C5 19.9856 5 19.985 5 19.9844C5 19.9839 5 19.9833 5 19.9827C5 19.9821 5 19.9814 5 19.9808C5 19.9802 5 19.9795 5 19.9789C5 19.9782 5 19.9775 5 19.9768C5 19.9761 5 19.9754 5 19.9747C5 19.974 5 19.9732 5 19.9725C5 19.9717 5 19.9709 5 19.9702C5 19.9694 5 19.9686 5 19.9678C5 19.9669 5 19.9661 5 19.9653C5 19.9644 5 19.9635 5 19.9627C5 19.9618 5 19.9609 5 19.96C5 19.9591 5 19.9582 5 19.9572C5 19.9563 5 19.9553 5 19.9544C5 19.9534 5 19.9524 5 19.9514C5 19.9504 5 19.9494 5 19.9484C5 19.9474 5 19.9463 5 19.9453C5 19.9442 5 19.9431 5 19.942C5 19.941 5 19.9399 5 19.9387C5 19.9376 5 19.9365 5 19.9353C5 19.9342 5 19.933 5 19.9319C5 19.9307 5 19.9295 5 19.9283C5 19.9271 5 19.9259 5 19.9246C5 19.9234 5 19.9222 5 19.9209C5 19.9196 5 19.9184 5 19.9171C5 19.9158 5 19.9145 5 19.9132C5 19.9118 5 19.9105 5 19.9092C5 19.9078 5 19.9064 5 19.9051C5 19.9037 5 19.9023 5 19.9009C5 19.8995 5 19.8981 5 19.8966C5 19.8952 5 19.8937 5 19.8923C5 19.8908 5 19.8893 5 19.8879C5 19.8864 5 19.8849 5 19.8833C5 19.8818 5 19.8803 5 19.8787C5 19.8772 5 19.8756 5 19.8741C5 19.8725 5 19.8709 5 19.8693C5 19.8677 5 19.8661 5 19.8644C5 19.8628 5 19.8612 5 19.8595C5 19.8578 5 19.8562 5 19.8545C5 19.8528 5 19.8511 5 19.8494C5 19.8477 5 19.8459 5 19.8442C5 19.8424 5 19.8407 5 19.8389C5 19.8371 5 19.8354 5 19.8336C5 19.8318 5 19.83 5 19.8281C5 19.8263 5 19.8245 5 19.8226C5 19.8208 5 19.8189 5 19.817C5 19.8151 5 19.8132 5 19.8113C5 19.8094 5 19.8075 5 19.8056C5 19.8036 5 19.8017 5 19.7997C5 19.7978 5 19.7958 5 19.7938C5 19.7918 5 19.7898 5 19.7878C5 19.7858 5 19.7838 5 19.7817C5 19.7797 5 19.7776 5 19.7756C5 19.7735 5 19.7714 5 19.7693C5 19.7672 5 19.7651 5 19.763C5 19.7609 5 19.7588 5 19.7566C5 19.7545 5 19.7523 5 19.7501C5 19.748 5 19.7458 5 19.7436C5 19.7414 5 19.7392 5 19.737C5 19.7347 5 19.7325 5 19.7302C5 19.728 5 19.7257 5 19.7235C5 19.7212 5 19.7189 5 19.7166C5 19.7143 5 19.712 5 19.7096C5 19.7073 5 19.705 5 19.7026C5 19.7003 5 19.6979 5 19.6955C5 19.6931 5 19.6908 5 19.6884C5 19.686 5 19.6835 5 19.6811C5 19.6787 5 19.6762 5 19.6738C5 19.6713 5 19.6689 5 19.6664C5 19.6639 5 19.6614 5 19.6589C5 19.6564 5 19.6539 5 19.6513C5 19.6488 5 19.6463 5 19.6437C5 19.6412 5 19.6386 5 19.636C5 19.6334 5 19.6308 5 19.6282C5 19.6256 5 19.623 5 19.6204C5 19.6178 5 19.6151 5 19.6125C5 19.6098 5 19.6072 5 19.6045C5 19.6018 5 19.5991 5 19.5964C5 19.5937 5 19.591 5 19.5883C5 19.5855 5 19.5828 5 19.58C5 19.5773 5 19.5745 5 19.5718C5 19.569 5 19.5662 5 19.5634C5 19.5606 5 19.5578 5 19.555C5 19.5521 5 19.5493 5 19.5465C5 19.5436 5 19.5408 5 19.5379C5 19.535 5 19.5321 5 19.5292C5 19.5263 5 19.5234 5 19.5205C5 19.5176 5 19.5147 5 19.5117C5 19.5088 5 19.5058 5 19.5029C5 19.4999 5 19.4969 5 19.4939C5 19.491 5 19.488 5 19.4849C5 19.4819 5 19.4789 5 19.4759C5 19.4728 5 19.4698 5 19.4667C5 19.4637 5 19.4606 5 19.4575C5 19.4544 5 19.4514 5 19.4482C5 19.4451 5 19.442 5 19.4389C5 19.4358 5 19.4326 5 19.4295C5 19.4263 5 19.4232 5 19.42C5 19.4168 5 19.4137 5 19.4105C5 19.4073 5 19.4041 5 19.4008C5 19.3976 5 19.3944 5 19.3912C5 19.3879 5 19.3847 5 19.3814C5 19.3781 5 19.3749 5 19.3716C5 19.3683 5 19.365 5 19.3617C5 19.3584 5 19.3551 5 19.3518C5 19.3484 5 19.3451 5 19.3417C5 19.3384 5 19.335 5 19.3317C5 19.3283 5 19.3249 5 19.3215C5 19.3181 5 19.3147 5 19.3113C5 19.3079 5 19.3045 5 19.301C5 19.2976 5 19.2941 5 19.2907C5 19.2872 5 19.2837 5 19.2803C5 19.2768 5 19.2733 5 19.2698C5 19.2663 5 19.2628 5 19.2593C5 19.2557 5 19.2522 5 19.2487C5 19.2451 5 19.2416 5 19.238C5 19.2344 5 19.2309 5 19.2273C5 19.2237 5 19.2201 5 19.2165C5 19.2129 5 19.2093 5 19.2056C5 19.202 5 19.1984 5 19.1947C5 19.1911 5 19.1874 5 19.1837C5 19.1801 5 19.1764 5 19.1727C5 19.169 5 19.1653 5 19.1616C5 19.1579 5 19.1542 5 19.1504C5 19.1467 5 19.143 5 19.1392C5 19.1355 5 19.1317 5 19.1279C5 19.1242 5 19.1204 5 19.1166C5 19.1128 5 19.109 5 19.1052C5 19.1014 5 19.0976 5 19.0937C5 19.0899 5 19.0861 5 19.0822C5 19.0783 5 19.0745 5 19.0706C5 19.0667 5 19.0629 5 19.059C5 19.0551 5 19.0512 5 19.0473C5 19.0434 5 19.0394 5 19.0355C5 19.0316 5 19.0276 5 19.0237C5 19.0197 5 19.0158 5 19.0118C5 19.0078 5 19.0039 5 18.9999C5 18.9959 5 18.9919 5 18.9879C5 18.9839 5 18.9799 5 18.9758C5 18.9718 5 18.9678 5 18.9637C5 18.9597 5 18.9556 5 18.9516C5 18.9475 5 18.9434 5 18.9393C5 18.9353 5 18.9312 5 18.9271C5 18.923 5 18.9189 5 18.9147C5 18.9106 5 18.9065 5 18.9023C5 18.8982 5 18.8941 5 18.8899C5 18.8857 5 18.8816 5 18.8774C5 18.8732 5 18.869 5 18.8648C5 18.8607 5 18.8564 5 18.8522C5 18.848 5 18.8438 5 18.8396C5 18.8353 5 18.8311 5 18.8268C5 18.8226 5 18.8183 5 18.8141C5 18.8098 5 18.8055 5 18.8012C5 18.797 5 18.7927 5 18.7884C5 18.7841 5 18.7798 5 18.7754C5 18.7711 5 18.7668 5 18.7624C5 18.7581 5 18.7538 5 18.7494C5 18.7451 5 18.7407 5 18.7363C5 18.7319 5 18.7276 5 18.7232C5 18.7188 5 18.7144 5 18.71C5 18.7056 5 18.7011 5 18.6967C5 18.6923 5 18.6879 5 18.6834C5 18.679 5 18.6745 5 18.6701C5 18.6656 5 18.6611 5 18.6567C5 18.6522 5 18.6477 5 18.6432C5 18.6387 5 18.6342 5 18.6297C5 18.6252 5 18.6207 5 18.6162C5 18.6116 5 18.6071 5 18.6026C5 18.598 5 18.5935 5 18.5889C5 18.5843 5 18.5798 5 18.5752C5 18.5706 5 18.566 5 18.5614C5 18.5569 5 18.5523 5 18.5476C5 18.543 5 18.5384 5 18.5338C5 18.5292 5 18.5245 5 18.5199C5 18.5153 5 18.5106 5 18.5059C5 18.5013 5 18.4966 5 18.492C5 18.4873 5 18.4826 5 18.4779C5 18.4732 5 18.4685 5 18.4638C5 18.4591 5 18.4544 5 18.4497C5 18.445 5 18.4402 5 18.4355C5 18.4308 5 18.426 5 18.4213C5 18.4165 5 18.4118 5 18.407C5 18.4022 5 18.3975 5 18.3927C5 18.3879 5 18.3831 5 18.3783C5 18.3735 5 18.3687 5 18.3639C5 18.3591 5 18.3543 5 18.3494C5 18.3446 5 18.3398 5 18.3349C5 18.3301 5 18.3252 5 18.3204C5 18.3155 5 18.3107 5 18.3058C5 18.3009 5 18.296 5 18.2912C5 18.2863 5 18.2814 5 18.2765C5 18.2716 5 18.2667 5 18.2617C5 18.2568 5 18.2519 5 18.247C5 18.242 5 18.2371 5 18.2322C5 18.2272 5 18.2223 5 18.2173C5 18.2124 5 18.2074 5 18.2024C5 18.1974 5 18.1925 5 18.1875C5 18.1825 5 18.1775 5 18.1725C5 18.1675 5 18.1625 5 18.1575C5 18.1525 5 18.1474 5 18.1424C5 18.1374 5 18.1323 5 18.1273C5 18.1223 5 18.1172 5 18.1121C5 18.1071 5 18.102 5 18.097C5 18.0919 5 18.0868 5 18.0817C5 18.0766 5 18.0716 5 18.0665C5 18.0614 5 18.0563 5 18.0512C5 18.046 5 18.0409 5 18.0358C5 18.0307 5 18.0255 5 18.0204C5 18.0153 5 18.0101 5 18.005C5 17.9998 5 17.9947 5 17.9895C5 17.9844 5 17.9792 5 17.974C5 17.9688 5 17.9637 5 17.9585C5 17.9533 5 17.9481 5 17.9429C5 17.9377 5 17.9325 5 17.9273C5 17.922 5 17.9168 5 17.9116C5 17.9064 5 17.9011 5 17.8959C5 17.8907 5 17.8854 5 17.8802C5 17.8749 5 17.8697 5 17.8644C5 17.8591 5 17.8539 5 17.8486C5 17.8433 5 17.838 5 17.8327C5 17.8275 5 17.8222 5 17.8169C5 17.8116 5 17.8063 5 17.801C5 17.7956 5 17.7903 5 17.785C5 17.7797 5 17.7743 5 17.769C5 17.7637 5 17.7583 5 17.753C5 17.7476 5 17.7423 5 17.7369C5 17.7316 5 17.7262 5 17.7208C5 17.7155 5 17.7101 5 17.7047C5 17.6993 5 17.6939 5 17.6886C5 17.6832 5 17.6778 5 17.6724C5 17.667 5 17.6615 5 17.6561C5 17.6507 5 17.6453 5 17.6399C5 17.6344 5 17.629 5 17.6236C5 17.6181 5 17.6127 5 17.6072C5 17.6018 5 17.5963 5 17.5909C5 17.5854 5 17.58 5 17.5745C5 17.569 5 17.5636 5 17.5581C5 17.5526 5 17.5471 5 17.5416C5 17.5361 5 17.5306 5 17.5251C5 17.5196 5 17.5141 5 17.5086C5 17.5031 5 17.4976 5 17.4921C5 17.4865 5 17.481 5 17.4755C5 17.4699 5 17.4644 5 17.4589C5 17.4533 5 17.4478 5 17.4422C5 17.4367 5 17.4311 5 17.4256C5 17.42 5 17.4144 5 17.4089C5 17.4033 5 17.3977 5 17.3921C5 17.3865 5 17.381 5 17.3754C5 17.3698 5 17.3642 5 17.3586C5 17.353 5 17.3474 5 17.3418C5 17.3361 5 17.3305 5 17.3249C5 17.3193 5 17.3137 5 17.308C5 17.3024 5 17.2968 5 17.2911C5 17.2855 5 17.2798 5 17.2742C5 17.2686 5 17.2629 5 17.2572C5 17.2516 5 17.2459 5 17.2403C5 17.2346 5 17.2289 5 17.2232C5 17.2176 5 17.2119 5 17.2062C5 17.2005 5 17.1948 5 17.1891C5 17.1835 5 17.1778 5 17.1721C5 17.1664 5 17.1607 5 17.1549C5 17.1492 5 17.1435 5 17.1378C5 17.1321 5 17.1264 5 17.1206C5 17.1149 5 17.1092 5 17.1034C5 17.0977 5 17.092 5 17.0862C5 17.0805 5 17.0747 5 17.069C5 17.0632 5 17.0575 5 17.0517C5 17.046 5 17.0402 5 17.0344C5 17.0287 5 17.0229 5 17.0171C5 17.0113 5 17.0056 5 16.9998C5 16.994 5 16.9882 5 16.9824C5 16.9766 5 16.9708 5 16.965C5 16.9592 5 16.9534 5 16.9476C5 16.9418 5 16.936 5 16.9302C5 16.9244 5 16.9186 5 16.9127C5 16.9069 5 16.9011 5 16.8953C5 16.8894 5 16.8836 5 16.8778C5 16.8719 5 16.8661 5 16.8603C5 16.8544 5 16.8486 5 16.8427C5 16.8369 5 16.831 5 16.8252C5 16.8193 5 16.8135 5 16.8076C5 16.8017 5 16.7959 5 16.79C5 16.7841 5 16.7782 5 16.7724C5 16.7665 5 16.7606 5 16.7547C5 16.7489 5 16.743 5 16.7371C5 16.7312 5 16.7253 5 16.7194C5 16.7135 5 16.7076 5 16.7017C5 16.6958 5 16.6899 5 16.684C5 16.6781 5 16.6722 5 16.6663C5 16.6603 5 16.6544 5 16.6485C5 16.6426 5 16.6367 5 16.6307C5 16.6248 5 16.6189 5 16.6129C5 16.607 5 16.6011 5 16.5951C5 16.5892 5 16.5833 5 16.5773C5 16.5714 5 16.5654 5 16.5595C5 16.5535 5 16.5476 5 16.5416C5 16.5357 5 16.5297 5 16.5237C5 16.5178 5 16.5118 5 16.5058C5 16.4999 5 16.4939 5 16.4879C5 16.482 5 16.476 5 16.47C5 16.464 5 16.4581 5 16.4521C5 16.4461 5 16.4401 5 16.4341C5 16.4281 5 16.4222 5 16.4162C5 16.4102 5 16.4042 5 16.3982C5 16.3922 5 16.3862 5 16.3802C5 16.3742 5 16.3682 5 16.3622C5 16.3562 5 16.3502 5 16.3442C5 16.3381 5 16.3321 5 16.3261C5 16.3201 5 16.3141 5 16.3081C5 16.302 5 16.296 5 16.29C5 16.284 5 16.2779 5 16.2719C5 16.2659 5 16.2599 5 16.2538C5 16.2478 5 16.2418 5 16.2357C5 16.2297 5 16.2237 5 16.2176C5 16.2116 5 16.2055 5 16.1995C5 16.1934 5 16.1874 5 16.1813C5 16.1753 5 16.1692 5 16.1632C5 16.1571 5 16.1511 5 16.145C5 16.139 5 16.1329 5 16.1269C5 16.1208 5 16.1147 5 16.1087C5 16.1026 5 16.0966 5 16.0905C5 16.0844 5 16.0784 5 16.0723C5 16.0662 5 16.0601 5 16.0541C5 16.048 5 16.0419 5 16.0359C5 16.0298 5 16.0237 5 16.0176C5 16.0115 5 16.0055 5 15.9994C5 15.9933 5 15.9872 5 15.9811C5 15.9751 5 15.969 5 15.9629C5 15.9568 5 15.9507 5 15.9446C5 15.9385 5 15.9324 5 15.9263C5 15.9202 5 15.9142 5 15.9081C5 15.902 5 15.8959 5 15.8898C5 15.8837 5 15.8776 5 15.8715C5 15.8654 5 15.8593 5 15.8532C5 15.8471 5 15.841 5 15.8349C5 15.8288 5 15.8227 5 15.8166C5 15.8104 5 15.8043 5 15.7982C5 15.7921 5 15.786 5 15.7799C5 15.7738 5 15.7677 5 15.7616C5 15.7555 5 15.7493 5 15.7432C5 15.7371 5 15.731 5 15.7249C5 15.7188 5 15.7127 5 15.7065C5 15.7004 5 15.6943 5 15.6882C5 15.6821 5 15.6759 5 15.6698C5 15.6637 5 15.6576 5 15.6515C5 15.6453 5 15.6392 5 15.6331C5 15.627 5 15.6209 5 15.6147C5 15.6086 5 15.6025 5 15.5964C5 15.5902 5 15.5841 5 15.578C5 15.5719 5 15.5657 5 15.5596C5 15.5535 5 15.5474 5 15.5412C5 15.5351 5 15.529 5 15.5228C5 15.5167 5 15.5106 5 15.5045C5 15.4983 5 15.4922 5 15.4861C5 15.4799 5 15.4738 5 15.4677C5 15.4616 5 15.4554 5 15.4493C5 15.4432 5 15.437 5 15.4309C5 15.4248 5 15.4187 5 15.4125C5 15.4064 5 15.4003 5 15.3941C5 15.388 5 15.3819 5 15.3757C5 15.3696 5 15.3635 5 15.3573C5 15.3512 5 15.3451 5 15.339C5 15.3328 5 15.3267 5 15.3206C5 15.3144 5 15.3083 5 15.3022C5 15.296 5 15.2899 5 15.2838C5 15.2777 5 15.2715 5 15.2654C5 15.2593 5 15.2531 5 15.247C5 15.2409 5 15.2348 5 15.2286C5 15.2225 5 15.2164 5 15.2103C5 15.2041 5 15.198 5 15.1919C5 15.1857 5 15.1796 5 15.1735C5 15.1674 5 15.1612 5 15.1551C5 15.149 5 15.1429 5 15.1368C5 15.1306 5 15.1245 5 15.1184C5 15.1123 5 15.1061 5 15.1C5 15.0939 5 15.0878 5 15.0817C5 15.0755 5 15.0694 5 15.0633C5 15.0572 5 15.0511 5 15.045C5 15.0388 5 15.0327 5 15.0266C5 15.0205 5 15.0144 5 15.0083C5 15.0022 5 14.9961 5 14.9899C5 14.9838 5 14.9777 5 14.9716C5 14.9655 5 14.9594 5 14.9533C5 14.9472 5 14.9411 5 14.935C5 14.9289 5 14.9228 5 14.9167C5 14.9106 5 14.9045 5 14.8984C5 14.8923 5 14.8862 5 14.8801C5 14.874 5 14.8679 5 14.8618C5 14.8557 5 14.8496 5 14.8435C5 14.8374 5 14.8313 5 14.8252C5 14.8191 5 14.813 5 14.8069C5 14.8009 5 14.7948 5 14.7887C5 14.7826 5 14.7765 5 14.7704C5 14.7643 5 14.7583 5 14.7522C5 14.7461 5 14.74 5 14.734C5 14.7279 5 14.7218 5 14.7157C5 14.7097 5 14.7036 5 14.6975C5 14.6914 5 14.6854 5 14.6793C5 14.6732 5 14.6672 5 14.6611C5 14.655 5 14.649 5 14.6429C5 14.6369 5 14.6308 5 14.6248C5 14.6187 5 14.6126 5 14.6066C5 14.6005 5 14.5945 5 14.5884C5 14.5824 5 14.5763 5 14.5703C5 14.5642 5 14.5582 5 14.5522C5 14.5461 5 14.5401 5 14.534C5 14.528 5 14.522 5 14.5159C5 14.5099 5 14.5039 5 14.4978C5 14.4918 5 14.4858 5 14.4798C5 14.4737 5 14.4677 5 14.4617C5 14.4557 5 14.4496 5 14.4436C5 14.4376 5 14.4316 5 14.4256C5 14.4196 5 14.4136 5 14.4076C5 14.4016 5 14.3955 5 14.3895C5 14.3835 5 14.3775 5 14.3715C5 14.3655 5 14.3595 5 14.3536C5 14.3476 5 14.3416 5 14.3356C5 14.3296 5 14.3236 5 14.3176C5 14.3116 5 14.3057 5 14.2997C5 14.2937 5 14.2877 5 14.2818C5 14.2758 5 14.2698 5 14.2638C5 14.2579 5 14.2519 5 14.2459C5 14.24 5 14.234 5 14.2281C5 14.2221 5 14.2162 5 14.2102C5 14.2043 5 14.1983 5 14.1924C5 14.1864 5 14.1805 5 14.1745C5 14.1686 5 14.1627 5 14.1567C5 14.1508 5 14.1448 5 14.1389C5 14.133 5 14.1271 5 14.1211C5 14.1152 5 14.1093 5 14.1034C5 14.0975 5 14.0916 5 14.0856C5 14.0797 5 14.0738 5 14.0679C5 14.062 5 14.0561 5 14.0502C5 14.0443 5 14.0384 5 14.0325C5 14.0266 5 14.0208 5 14.0149C5 14.009 5 14.0031 5 13.9972C5 13.9913 5 13.9855 5 13.9796C5 13.9737 5 13.9679 5 13.962C5 13.9561 5 13.9503 5 13.9444C5 13.9385 5 13.9327 5 13.9268C5 13.921 5 13.9151 5 13.9093C5 13.9034 5 13.8976 5 13.8918C5 13.8859 5 13.8801 5 13.8743C5 13.8684 5 13.8626 5 13.8568C5 13.851 5 13.8451 5 13.8393C5 13.8335 5 13.8277 5 13.8219C5 13.8161 5 13.8103 5 13.8045C5 13.7987 5 13.7929 5 13.7871C5 13.7813 5 13.7755 5 13.7697C5 13.7639 5 13.7582 5 13.7524C5 13.7466 5 13.7408 5 13.7351C5 13.7293 5 13.7235 5 13.7178C5 13.712 5 13.7062 5 13.7005C5 13.6947 5 13.689 5 13.6832C5 13.6775 5 13.6717 5 13.666C5 13.6603 5 13.6545 5 13.6488C5 13.6431 5 13.6373 5 13.6316C5 13.6259 5 13.6202 5 13.6145C5 13.6088 5 13.6031 5 13.5973C5 13.5916 5 13.5859 5 13.5802C5 13.5746 5 13.5689 5 13.5632C5 13.5575 5 13.5518 5 13.5461C5 13.5405 5 13.5348 5 13.5291C5 13.5234 5 13.5178 5 13.5121C5 13.5065 5 13.5008 5 13.4951C5 13.4895 5 13.4838 5 13.4782C5 13.4726 5 13.4669 5 13.4613C5 13.4557 5 13.45 5 13.4444C5 13.4388 5 13.4332 5 13.4276C5 13.4219 5 13.4163 5 13.4107C5 13.4051 5 13.3995 5 13.3939C5 13.3883 5 13.3827 5 13.3772C5 13.3716 5 13.366 5 13.3604C5 13.3548 5 13.3493 5 13.3437C5 13.3381 5 13.3326 5 13.327C5 13.3215 5 13.3159 5 13.3104C5 13.3048 5 13.2993 5 13.2937C5 13.2882 5 13.2827 5 13.2772C5 13.2716 5 13.2661 5 13.2606C5 13.2551 5 13.2496 5 13.2441C5 13.2386 5 13.2331 5 13.2276C5 13.2221 5 13.2166 5 13.2111C5 13.2056 5 13.2001 5 13.1947C5 13.1892 5 13.1837 5 13.1783C5 13.1728 5 13.1673 5 13.1619C5 13.1564 5 13.151 5 13.1455C5 13.1401 5 13.1347 5 13.1292C5 13.1238 5 13.1184 5 13.113C5 13.1075 5 13.1021 5 13.0967C5 13.0913 5 13.0859 5 13.0805C5 13.0751 5 13.0697 5 13.0643C5 13.059 5 13.0536 5 13.0482C5 13.0428 5 13.0375 5 13.0321C5 13.0267 5 13.0214 5 13.016C5 13.0107 5 13.0053 5 13L4 13Z" fill="#526359"/>
</g>
</svg>
