<svg width="37" height="33" fill="none" xmlns="http://www.w3.org/2000/svg"><g opacity=".5"><path d="M22.765 23.481h-4.443a4.736 4.736 0 01-4.73-4.73v-6.187h11.196a2.71 2.71 0 012.707 2.707v3.48c.008 2.604-2.118 4.73-4.73 4.73zm-8.058-9.802v5.072a3.623 3.623 0 003.615 3.616h4.443a3.623 3.623 0 003.616-3.616v-3.48c0-.875-.717-1.592-1.593-1.592H14.707zM23.307 25a.554.554 0 00-.557.557c0 .311.246.558.557.558.31 0 .557-.247.557-.558a.559.559 0 00-.557-.557zm-5.518 0a.554.554 0 00-.558.557c0 .311.247.558.558.558.31 0 .557-.247.557-.558a.57.57 0 00-.557-.557z" fill="#526359"/><path d="M14.15 15.47a.554.554 0 01-.558-.557v-2.206c0-.876-.717-1.592-1.593-1.592h-.836a.554.554 0 01-.557-.558c0-.31.247-.557.557-.557H12a2.71 2.71 0 012.708 2.707v2.206a.559.559 0 01-.558.558z" fill="#526359"/><path d="M10 5.098A15.445 15.445 0 0120.5 1C29.06 1 36 7.94 36 16.5 36 25.06 29.06 32 20.5 32c-4.05 0-7.739-1.554-10.5-4.098" stroke="#526359" stroke-linecap="round"/><path d="M1 16a.5.5 0 000 1v-1zm7 1a.5.5 0 000-1v1zm-7 0h7v-1H1v1z" fill="#526359"/><path d="M5 13a.5.5 0 00-1 0h1zm-1 7a.5.5 0 001 0H4zm0-7v7h1v-7H4z" fill="#526359"/></g></svg>