<svg width="31" height="57" viewBox="0 0 31 57" fill="none" xmlns="http://www.w3.org/2000/svg">
<path d="M1.08956 49.7613C0.579559 52.3913 2.29956 54.9413 4.92956 55.4413C7.55956 55.9513 10.1096 54.2313 10.6096 51.6013L14.6396 32.1813L5.45956 29.8613L1.08956 49.7613Z" stroke="white" stroke-miterlimit="10"/>
<path d="M26.6697 15.5413L3.09967 10.7613C2.25967 10.5913 1.71967 9.77127 1.88967 8.94127L3.24967 2.24127C3.41967 1.40127 4.23967 0.861271 5.06967 1.03127L28.6397 5.81127C29.4797 5.98127 30.0197 6.80127 29.8497 7.63127L28.4897 14.3313C28.3197 15.1713 27.5097 15.7113 26.6697 15.5413Z" stroke="white" stroke-miterlimit="10"/>
<path d="M21.6095 14.4111L21.3295 15.7911C21.1595 16.6311 20.3395 17.1711 19.5095 17.0011L8.96954 14.8611C8.12954 14.6911 7.58954 13.8711 7.75954 13.0411L8.03954 11.6611" stroke="white" stroke-miterlimit="10"/>
<path d="M10.9493 15.5212L7.56934 30.1112" stroke="white" stroke-miterlimit="10"/>
<path d="M16.8196 16.4612L12.8496 31.8012" stroke="white" stroke-miterlimit="10"/>
</svg>
