<svg width="31" height="57" fill="none" xmlns="http://www.w3.org/2000/svg"><path d="M1.09 49.761a4.841 4.841 0 003.84 5.68c2.63.51 5.18-1.21 5.68-3.84l4.03-19.42-9.18-2.32-4.37 19.9zm25.58-34.22L3.1 10.761c-.84-.17-1.38-.99-1.21-1.82l1.36-6.7c.17-.84.99-1.38 1.82-1.21l23.57 4.78c.84.17 1.38.99 1.21 1.82l-1.36 6.7a1.54 1.54 0 01-1.82 1.21z" stroke="#fff" stroke-miterlimit="10"/><path d="M21.61 14.411l-.28 1.38c-.17.84-.99 1.38-1.82 1.21l-10.54-2.14c-.84-.17-1.38-.99-1.21-1.82l.28-1.38m2.91 3.86l-3.38 14.59m9.25-13.65l-3.97 15.34" stroke="#fff" stroke-miterlimit="10"/></svg>