<svg width="56" height="58" fill="none" xmlns="http://www.w3.org/2000/svg"><path d="M14.41 41.02v11.53c0 2.19 1.78 3.97 3.97 3.97 2.19 0 3.97-1.78 3.97-3.97v-2.97h14.03" stroke="#fff" stroke-miterlimit="10"/><path d="M36.37 46.1v6.54c0 2.2 1.79 3.99 3.99 3.99s3.99-1.79 3.99-3.99V46.1s1.34-.13 3.16-1.91m1.37-2.34s1.47-2.3 1.85-2.36c.22-.04 1.78-.03 3.05-.02.92.01 1.67-.74 1.67-1.66v-5.95c0-.92-.74-1.66-1.66-1.66h-3.03s-.45-7.34-8.33-11.65v-7.31h-3.16l-7.09 7.2m-17.77 27.4S10.64 44.12 9.14 40c-1.5-4.12-1.47-10.47.99-14.74 2.46-4.28 8.9-7.47 8.9-7.47s1.79 1.88 1.85 3.48h12.06" stroke="#fff" stroke-miterlimit="10"/><path d="M5.28 37.35c0 1.18-.96 2.14-2.14 2.14-1.18 0-2.14-.95-2.14-2.14 0-1.69 1.22-3.64 3.61-3.64h3.26m36.6-8.56v3.81m-33.86-14.1a6.93 6.93 0 100-13.86 6.93 6.93 0 000 13.86z" stroke="#fff" stroke-miterlimit="10"/><path d="M10.19 12.71V11.5c-.7-.01-1.42-.23-1.83-.53l.29-.8c.43.29 1.06.52 1.73.52.85 0 1.43-.49 1.43-1.18 0-.66-.47-1.07-1.36-1.43-1.23-.48-1.99-1.03-1.99-2.07 0-1 .71-1.75 1.81-1.93V2.86h.74v1.16c.72.02 1.21.22 1.56.42l-.3.79c-.25-.14-.74-.41-1.51-.41-.92 0-1.27.55-1.27 1.03 0 .62.44.94 1.49 1.37 1.24.5 1.86 1.13 1.86 2.19 0 .95-.66 1.83-1.9 2.04v1.25h-.75v.01z" fill="#fff"/><path d="M10.19 12.71V11.5c-.7-.01-1.42-.23-1.83-.53l.29-.8c.43.29 1.06.52 1.73.52.85 0 1.43-.49 1.43-1.18 0-.66-.47-1.07-1.36-1.43-1.23-.48-1.99-1.03-1.99-2.07 0-1 .71-1.75 1.81-1.93V2.86h.74v1.16c.72.02 1.21.22 1.56.42l-.3.79c-.25-.14-.74-.41-1.51-.41-.92 0-1.27.55-1.27 1.03 0 .62.44.94 1.49 1.37 1.24.5 1.86 1.13 1.86 2.19 0 .95-.66 1.83-1.9 2.04v1.25h-.75v.01zm15.25 7.66v-1.21c-.7-.01-1.42-.23-1.83-.53l.29-.8c.43.29 1.06.52 1.73.52.85 0 1.43-.49 1.43-1.18 0-.66-.47-1.07-1.36-1.43-1.22-.48-1.98-1.03-1.98-2.08 0-1 .71-1.75 1.81-1.93v-1.21h.74v1.16c.72.02 1.21.22 1.56.42l-.3.79c-.25-.14-.74-.41-1.51-.41-.92 0-1.27.55-1.27 1.03 0 .62.44.94 1.49 1.37 1.24.5 1.86 1.13 1.86 2.19 0 .95-.66 1.83-1.9 2.04v1.25h-.76v.01z" fill="#fff"/><path d="M19.51 18.34l-.27-.74a6.933 6.933 0 016.63-8.95c3.83 0 6.93 3.1 6.93 6.93 0 2.27-1.09 4.28-2.77 5.54l-.71.14" stroke="#fff" stroke-miterlimit="10"/></svg>