<svg width="24" height="24" viewBox="0 0 24 24" fill="none" xmlns="http://www.w3.org/2000/svg">
<g clip-path="url(#clip0)">
<path d="M11.6029 0.723752C17.6109 0.723752 22.4811 5.59393 22.4811 11.6019C22.4811 17.6099 17.6109 22.4801 11.6029 22.4801C5.5949 22.4801 0.724728 17.6099 0.724728 11.6019C0.724728 5.59393 5.5949 0.723752 11.6029 0.723752ZM11.6029 -0.000976562C5.20355 -0.000976562 0 5.20257 0 11.6019C0 18.0013 5.20355 23.2048 11.6029 23.2048C18.0022 23.2048 23.2058 18.0013 23.2058 11.6019C23.2058 5.20257 17.995 -0.000976562 11.6029 -0.000976562Z" fill="white"/>
<path d="M14.5091 5.60852C14.5091 6.51443 14.5091 7.50731 14.5091 7.78995C13.9655 7.78995 13.3785 7.78995 13.1031 7.78995C12.8204 7.78995 12.545 8.07984 12.545 8.29001C12.545 8.50743 12.545 9.72497 12.545 9.72497C12.545 9.72497 14.2844 9.72497 14.5091 9.72497C14.4293 10.8266 14.2699 11.8339 14.2699 11.8339H12.5378V17.5883H9.95777V11.8339H8.69674V9.73222H9.95777C9.95777 9.73222 9.95777 8.3335 9.95777 8.01462C9.95777 7.70298 9.89254 5.60127 12.6103 5.59402C12.9581 5.60852 13.7843 5.60852 14.5091 5.60852ZM15.2338 4.88379H14.5091H12.5958C11.4942 4.88379 10.639 5.18818 10.0447 5.78245C9.66788 6.16656 9.2113 6.85505 9.21855 8.00737V9.01474H8.68225H7.95752V9.73947V11.8412V12.5659H8.68225H9.21855V17.5955V18.3203H9.94328H12.5233H13.248V17.5955V12.5659H14.2554H14.8714L14.9656 11.9571C14.9729 11.9137 15.1323 10.9063 15.212 9.7902L15.27 9.01474H14.4873H13.248V8.52917H14.4873H15.212V7.80444V5.60852V4.88379H15.2338Z" fill="white"/>
</g>
<defs>
<clipPath id="clip0">
<rect width="23.2058" height="23.2058" fill="white" transform="translate(0 -0.000976562)"/>
</clipPath>
</defs>
</svg>
