<svg width="56" height="58" fill="none" xmlns="http://www.w3.org/2000/svg"><path d="M3.64 56.58s2.38-4.94 2.38-10.47S1 22.62 1 19.04C1 15.46 3.13 8.92 15.47 1" stroke="#fff" stroke-miterlimit="10"/><path d="M10.13 56.58s6.45-8.06 6.45-14.13-3.7-8.68-4.85-12c-1.15-3.32-.89-8.36 2.81-8.36s3.51 4.15 3.51 4.15 17.43-3.38 25.79-24.45c0 0 6.13 9.45 6.13 12 0 2.55-2.04 4.02-2.04 5.81s.64 4.15 3.83 6.51c3.19 2.36 4.6 5.3-.96 9.45 0 0-.77 2.81-.26 4.6.51 1.79.45 3.57-.45 4.34s-.45 3.51-.06 4.4c.38.89 1.09 5.36-3.96 5.81-5.04.45-18.26-4.53-25.98-13.15m9.12 15.02s1.63-.58 2.35-6.3m12.72-.75S26.54 45.25 25.85 35.1" stroke="#fff" stroke-miterlimit="10"/><path d="M23.6 39.13l1.85-4.47 3.76 1.85m21.07-5.87l-2.94 1.98m2.94 6.83l-3.44.94a.65.65 0 00-.24 1.13l3.23 2.65M17.79 32.62s-1.04 2.17-3.39 2.49M33.87 3.26s1.02 7.79-6.38 12.89m0-14.62S28 9 22.45 11.87m-3.07.77s-.46.96-3.29 1.15" stroke="#fff" stroke-miterlimit="10"/></svg>