<svg width="47" height="60" fill="none" xmlns="http://www.w3.org/2000/svg"><path d="M40.42 34.738c0 9.278-7.517 16.794-16.795 16.794-9.278 0-16.794-7.516-16.794-16.794V15.04c5.135 0 16.794-6.55 16.794-6.55s11.685 6.55 16.795 6.55v19.697z" stroke="#fff" stroke-miterlimit="10"/><path d="M46.249 36.376C46.249 48.879 36.127 59 23.624 59 11.123 59 1 48.879 1 36.376V9.83C7.896 9.831 23.625 1 23.625 1s15.752 8.831 22.624 8.831v26.545z" stroke="#fff" stroke-miterlimit="10"/><path d="M32.804 26.154c.993-.992.993-2.604 0-3.621-.992-.993-2.604-.993-3.622 0l-8.062 8.062-3.324-3.324c-.992-.992-2.605-.992-3.622 0-.992.992-.992 2.605 0 3.622l6.97 6.97 11.66-11.709z" stroke="#fff" stroke-miterlimit="10"/></svg>