<svg width="60" height="60" fill="none" xmlns="http://www.w3.org/2000/svg"><path d="M30 59c16.016 0 29-12.984 29-29S46.016 1 30 1 1 13.984 1 30s12.984 29 29 29z" stroke="#fff" stroke-miterlimit="10"/><path d="M30 52.047c12.076 0 21.866-9.789 21.866-21.865C51.866 18.107 42.076 7.85 30 7.85S8.134 17.64 8.134 29.715c0 12.076 9.79 22.333 21.866 22.333z" stroke="#fff" stroke-miterlimit="10"/><path d="M29.998 33.797a4.085 4.085 0 100-8.17 4.085 4.085 0 000 8.17zM30 25.456V17.69m0-3.557V8.322m0 43.14v-5.84m21.432-15.909h-5.811m-31.097 0H8.712m9.348 11.133l-4.114 4.115m31.1-30.654l-4.114 4.115m4.892 26.019l-4.114-4.114M19.095 18.16l-4.114-4.114" stroke="#fff" stroke-miterlimit="10"/></svg>