<svg width="24" height="24" viewBox="0 0 24 24" fill="none" xmlns="http://www.w3.org/2000/svg">
<path d="M12.3827 0.723752C18.3979 0.723752 23.2753 5.60117 23.2753 11.6164C23.2753 17.6317 18.3979 22.5091 12.3827 22.5091C6.36741 22.5091 1.48999 17.6317 1.48999 11.6164C1.48999 5.60117 6.36741 0.723752 12.3827 0.723752ZM12.3827 -0.000976562C5.97606 -0.000976562 0.765259 5.20982 0.765259 11.6164C0.765259 18.023 5.97606 23.2338 12.3827 23.2338C18.7893 23.2338 24 18.023 24 11.6164C24 5.20982 18.782 -0.000976562 12.3827 -0.000976562Z" fill="white"/>
<path d="M11.5346 8.2677C11.636 8.2677 11.7375 8.2677 11.8462 8.2677C12.4405 8.27494 12.6144 8.31118 12.8463 8.36916C13.5493 8.53585 13.3101 9.19535 13.3101 10.7753C13.3101 11.2826 13.2159 11.9928 13.5855 12.2247C13.6145 12.2392 13.6435 12.2537 13.687 12.2537C13.8899 12.2537 14.2885 11.9638 15.0857 10.6158C15.5423 9.8476 15.8829 8.94169 15.8829 8.94169C15.8829 8.94169 15.9554 8.78225 16.0714 8.70978C16.1438 8.6663 16.2308 8.65905 16.2888 8.65905C16.325 8.65905 16.3468 8.65905 16.3468 8.65905L18.4992 8.64456C18.4992 8.64456 18.5789 8.63731 18.6804 8.63731C18.8833 8.63731 19.1804 8.67354 19.2457 8.86197C19.3544 9.16636 19.0065 9.88384 18.1223 11.0507C16.6801 12.9712 16.5207 12.79 17.7165 13.9061C18.8616 14.9714 19.1007 15.486 19.137 15.5512C19.608 16.3339 18.6152 16.3991 18.6152 16.3991L16.7091 16.4136C16.7091 16.4136 16.6729 16.4209 16.6004 16.4209C16.4482 16.4209 16.1293 16.3847 15.7597 16.1238C15.0857 15.6599 14.4552 14.5076 13.9407 14.5076C13.9044 14.5076 13.8754 14.5149 13.8464 14.5221C13.3174 14.6888 13.3319 15.8411 13.3319 15.8411C13.3319 15.8411 13.3391 16.0875 13.2159 16.218C13.0855 16.3629 12.8246 16.3919 12.8246 16.3919H11.9694C11.9694 16.3919 11.9404 16.3919 11.8969 16.3919C11.5346 16.3919 9.88943 16.3049 8.42548 14.7758C6.61366 12.8915 5.01201 9.14462 5.01201 9.14462C5.01201 9.14462 4.9178 8.89821 5.01926 8.78225C5.13521 8.6518 5.4396 8.63731 5.4396 8.63731L7.48333 8.62281C7.48333 8.62281 7.67901 8.6518 7.81671 8.75326C7.93266 8.84023 7.99064 8.99243 7.99064 8.99243C7.99064 8.99243 8.32402 9.82586 8.75885 10.5796C9.48358 11.8334 9.88218 12.2537 10.1648 12.2537C10.2156 12.2537 10.259 12.2392 10.3025 12.2175C10.7229 11.9856 10.5997 10.1302 10.5997 10.1302C10.5997 10.1302 10.6069 9.45625 10.3895 9.15911C10.2156 8.9272 9.89668 8.86197 9.75173 8.84023C9.63578 8.82574 9.8242 8.55759 10.0706 8.44163C10.3822 8.29669 10.904 8.2677 11.5346 8.2677ZM11.5346 7.54297C10.7519 7.54297 10.1793 7.58645 9.74449 7.80387C9.44735 7.94882 8.9038 8.37641 8.99801 8.94169C9.04875 9.27507 9.3169 9.52872 9.65027 9.57221C9.7155 9.57946 9.76623 9.6012 9.79522 9.61569C9.83145 9.71715 9.86769 9.95631 9.86769 10.1447V10.1737V10.2027C9.88943 10.4781 9.88943 10.7753 9.88218 11.0434C9.75173 10.8477 9.58505 10.5868 9.38212 10.239C8.97627 9.54322 8.66464 8.75326 8.66464 8.74602C8.6284 8.65905 8.49795 8.37641 8.2443 8.18798C7.9834 7.99955 7.68626 7.94157 7.60654 7.92707L7.54131 7.91983H7.47609L5.43235 7.93432C5.22943 7.91983 4.75836 7.97056 4.46846 8.31118C4.12059 8.72428 4.28003 9.24608 4.33801 9.39827C4.41773 9.5867 6.02663 13.3118 7.90368 15.2758C9.54156 16.9862 11.3751 17.1166 11.8969 17.1166C11.9404 17.1166 11.9694 17.1166 11.9839 17.1166H12.8246H12.8608L12.8971 17.1094C13.0203 17.0949 13.4478 17.0297 13.7377 16.7108C14.0349 16.3919 14.0494 15.9571 14.0494 15.8339C14.0494 15.7179 14.0639 15.573 14.0856 15.457C14.1871 15.5657 14.303 15.6962 14.39 15.7976C14.6726 16.1165 14.9915 16.4861 15.3466 16.7325C15.8539 17.0804 16.3105 17.1601 16.6004 17.1601C16.6656 17.1601 16.7236 17.1529 16.7599 17.1529L18.6224 17.1239C18.8036 17.1166 19.5501 17.0369 19.8689 16.4354C19.9849 16.218 20.1153 15.7686 19.7602 15.1744C19.4921 14.6888 18.9703 14.08 18.2093 13.377L18.1731 13.348C17.9846 13.1741 17.7745 12.9784 17.673 12.8625C17.7672 12.703 17.9846 12.4204 18.2021 12.1377C18.347 11.9493 18.5137 11.7391 18.6949 11.4927C19.9559 9.80412 20.1009 9.12288 19.9197 8.62281C19.8255 8.36191 19.5356 7.91983 18.6659 7.91983C18.5717 7.91983 18.492 7.92707 18.4485 7.92707L16.3685 7.94157C16.3468 7.94157 16.3105 7.94157 16.2815 7.94157C16.0641 7.94157 15.8612 7.9923 15.6873 8.09376C15.4119 8.26045 15.2597 8.53585 15.2089 8.64456L15.2017 8.6663L15.1944 8.68804C15.1944 8.69529 14.8683 9.55047 14.4552 10.2535C14.2885 10.5288 14.1508 10.7535 14.0349 10.9274C14.0349 10.8767 14.0349 10.8332 14.0349 10.7825C14.0349 10.4346 14.0494 10.1302 14.0566 9.8621C14.0929 8.91995 14.1363 7.94157 13.013 7.67342C12.7231 7.60095 12.4985 7.55746 11.8462 7.55022L11.5346 7.54297Z" fill="white"/>
</svg>
