<svg width="24" height="24" viewBox="0 0 24 24" fill="none" xmlns="http://www.w3.org/2000/svg">
<path d="M12 0.723752C18.0152 0.723752 22.8926 5.60117 22.8926 11.6164C22.8926 17.6317 18.0152 22.5091 12 22.5091C5.98472 22.5018 1.1073 17.6317 1.1073 11.6164C1.1073 5.60117 5.98472 0.723752 12 0.723752ZM12 -0.000976562C5.59336 -0.000976562 0.382568 5.20982 0.382568 11.6164C0.382568 18.023 5.59336 23.2338 12 23.2338C18.4066 23.2338 23.6174 18.023 23.6174 11.6164C23.6174 5.20982 18.3993 -0.000976562 12 -0.000976562Z" fill="white"/>
<path d="M12 7.00012C12 7.00012 14.7323 7.00012 16.5586 7.13057C16.8122 7.15956 17.3703 7.16681 17.8631 7.68861C18.2545 8.08721 18.3777 8.99312 18.3777 8.99312C18.3777 8.99312 18.5081 10.0585 18.5081 11.1166V12.1095C18.5081 13.1748 18.3777 14.2329 18.3777 14.2329C18.3777 14.2329 18.2472 15.1388 17.8631 15.5374C17.3703 16.0592 16.8122 16.0592 16.5586 16.0955C14.7323 16.2259 12 16.2332 12 16.2332C12 16.2332 8.61556 16.2042 7.57196 16.1027C7.28206 16.0447 6.62981 16.0665 6.13699 15.5447C5.74564 15.1461 5.62244 14.2402 5.62244 14.2402C5.62244 14.2402 5.49199 13.1821 5.49199 12.1167V11.1238C5.49199 10.0657 5.62244 9.00037 5.62244 9.00037C5.62244 9.00037 5.75289 8.09446 6.13699 7.69586C6.62981 7.17405 7.18785 7.17405 7.4415 7.13782C9.26057 7.00012 11.9928 7.00012 12 7.00012ZM12 6.27539C11.8841 6.27539 9.20984 6.27539 7.38353 6.41309L7.28206 6.42034C6.97043 6.44933 6.23846 6.5218 5.60794 7.18855C5.08614 7.72485 4.91945 8.69598 4.89771 8.89166C4.89046 8.94964 4.76001 10.0222 4.76001 11.1166V12.1095C4.76001 13.2038 4.89046 14.2764 4.89771 14.3199C4.9267 14.5228 5.08614 15.5012 5.61519 16.0447C6.19497 16.6607 6.9197 16.7477 7.30381 16.7912C7.35454 16.7984 7.39802 16.7984 7.43426 16.8057L7.46325 16.8129H7.49224C8.55034 16.9144 11.8479 16.9506 11.9856 16.9506C12.1088 16.9506 14.7758 16.9434 16.6093 16.8129L16.7108 16.8057C17.0224 16.7767 17.7544 16.7042 18.3849 16.0375C18.9067 15.5084 19.0661 14.53 19.0951 14.3344C19.1024 14.2764 19.2328 13.2038 19.2328 12.1095V11.1166C19.2328 10.0222 19.1024 8.94964 19.0951 8.90615C19.0661 8.70323 18.9067 7.72485 18.3777 7.1813C17.7544 6.5218 17.0224 6.44933 16.7108 6.42034L16.6456 6.41309C14.783 6.27539 12.116 6.27539 12 6.27539Z" fill="white"/>
<path fill-rule="evenodd" clip-rule="evenodd" d="M10.6521 13.3197V9.63086L14.1743 11.4789L10.6521 13.3197Z" stroke="white" stroke-miterlimit="10"/>
</svg>
